<?xml version="1.0" encoding="UTF-8"?>
<svg version="1.1" xmlns="http://www.w3.org/2000/svg" width="1024" height="1024">
<path d="M0 0 C14.89066223 4.72553429 27.06864695 10.60436566 39 21 C40.26457031 22.0828125 40.26457031 22.0828125 41.5546875 23.1875 C49.67135379 30.29266684 56.38613115 37.83912198 62.4375 46.75 C62.87513672 47.38824707 63.31277344 48.02649414 63.76367188 48.68408203 C67.96213045 55.03000892 67.96213045 55.03000892 68 59 C66.77734375 62.06640625 66.77734375 62.06640625 64.9375 65.5625 C54.27910027 86.92233109 48.46240582 114.19966512 55.05078125 137.625 C57.01634334 142.67189192 57.01634334 142.67189192 61 146 C61 145.67 61 145.34 61 145 C60.34 144.67 59.68 144.34 59 144 C59 143.01 59 142.02 59 141 C59.66 140.67 60.32 140.34 61 140 C60.98952637 139.40799805 60.97905273 138.81599609 60.96826172 138.20605469 C60.59319349 113.56549613 61.96240923 89.83833855 72 67 C72.47953125 65.89398438 72.9590625 64.78796875 73.453125 63.6484375 C85.70032151 37.31101976 109.02103475 13.45465507 136.40332031 3.09033203 C142.44368433 1 142.44368433 1 146 1 C147.03300168 8.7892562 148.05924458 16.57937247 149.07739925 24.37058163 C149.55062022 27.99023944 150.0259685 31.60958851 150.5065918 35.22827148 C154.57791004 65.90481969 154.57791004 65.90481969 155 80 C155.05546997 81.53986572 155.05546997 81.53986572 155.11206055 83.11083984 C155.74288502 104.65686419 148.28759459 124.0599256 134 140 C133.48179687 140.61230469 132.96359375 141.22460938 132.4296875 141.85546875 C119.6068414 155.98745359 101.67088747 162.47784766 84 168 C84 203.64 84 239.28 84 276 C85.98 268.08 87.96 260.16 90 252 C96.21846929 235.65144364 103.43389048 222.19434824 115 209 C115.4321582 208.50612793 115.86431641 208.01225586 116.30957031 207.50341797 C131.93204874 189.75776926 152.58116084 171.30028947 176 165 C176.99 165 177.98 165 179 165 C180.6543306 200.63173607 157.61307473 240.37568063 135.65625 266.984375 C133.95706434 269.00107124 133.95706434 269.00107124 132.40625 271.265625 C131.9421875 271.83796875 131.478125 272.4103125 131 273 C130.34 273 129.68 273 129 273 C128.62681641 273.86044922 128.62681641 273.86044922 128.24609375 274.73828125 C123.67311958 283.0384444 114.31440656 289.24408791 107 295 C106.43071777 295.45149414 105.86143555 295.90298828 105.27490234 296.36816406 C103.50086727 297.7729102 101.72054689 299.16921586 99.9375 300.5625 C99.09687012 301.22560181 99.09687012 301.22560181 98.23925781 301.90209961 C94.23202348 305 94.23202348 305 92 305 C92 305.66 92 306.32 92 307 C91.236875 307.70125 90.47375 308.4025 89.6875 309.125 C82.06896092 317.27506507 83.56577237 328.02102825 83.56054688 338.46679688 C83.38193776 350.40897201 83.38193776 350.40897201 79 356 C75.95121498 357.97759028 74.14579025 358 70.5 358 C66.89737635 356.97067896 65.12966909 355.89994874 62.93359375 352.83984375 C59.65890507 346.38637777 60.98439311 337.91827158 61.01953125 330.92578125 C61.07231935 314.90025133 61.07231935 314.90025133 53.0625 301.625 C48.67089856 297.42557561 43.93763497 293.82620635 39.0390625 290.2421875 C24.76876754 279.71371795 12.37642339 267.59381946 0.4453125 254.55151367 C-0.78555389 253.23020355 -2.06046039 251.95014422 -3.34375 250.6796875 C-5.11955643 248.87875174 -5.9030665 247.26242534 -7 245 C-8.89520664 242.51254129 -10.78893853 240.21106147 -13 238 C-22.786037 223.87729354 -30.84143953 208.47752054 -38.70947266 193.23999023 C-45.01406094 180.57321929 -45.01406094 180.57321929 -52.71484375 168.76171875 C-54 167 -54 167 -54 165 C-28.58879524 164.29177244 -2.53966618 178.56029601 16 195 C16.49274414 195.42861328 16.98548828 195.85722656 17.49316406 196.29882812 C38.17001092 214.3518371 50.38796811 234.4592189 58.30151367 260.74926758 C59.15943174 263.51373689 60.08189592 266.25500429 61 269 C61.02329693 258.04605786 61.04100275 247.09212174 61.05181217 236.13815975 C61.05700336 231.05034947 61.0640316 225.9625563 61.07543945 220.87475586 C61.08640341 215.9534393 61.09230509 211.03213907 61.09487724 206.11081123 C61.09670738 204.24480495 61.10028043 202.37879944 61.10573006 200.51280022 C61.13622505 189.62581192 60.90985772 178.85310482 60 168 C58.88357117 167.68484436 57.76714233 167.36968872 56.61688232 167.04498291 C41.73731178 162.81902987 29.52293213 156.45103147 18 146 C17.36835938 145.46117187 16.73671875 144.92234375 16.0859375 144.3671875 C1.09294346 130.74341666 -6.11334393 109.27432838 -7.12597656 89.5456543 C-7.66968982 71.5773076 -5.93811947 53.83395245 -4 36 C-3.91325012 35.19763916 -3.82650024 34.39527832 -3.73712158 33.56860352 C-2.52600816 22.37511959 -1.27815152 11.18602274 0 0 Z M82 281 C83 285 83 285 83 285 Z " fill="#151516" transform="translate(134,339)"/>
<path d="M0 0 C0.3473053 2.86192322 0.3473053 2.86192322 0.30883789 6.57006836 C0.30606339 7.2451947 0.30328888 7.92032104 0.3004303 8.61590576 C0.29235098 10.08537365 0.2772592 11.55481558 0.25605965 13.02415276 C0.22238329 15.35876703 0.20662724 17.69290206 0.19541931 20.02772522 C0.17258204 24.15500682 0.13355931 28.28195429 0.0894165 32.40905762 C0.01944012 38.9823949 -0.03636982 45.55569708 -0.07293892 52.12930489 C-0.08946888 54.41305261 -0.11905686 56.6963688 -0.14964294 58.97996521 C-0.62171272 74.53870915 -0.62171272 74.53870915 6 88 C11.16333046 91.40310417 16.4980773 92.55068403 22.55859375 91.59765625 C28.61995262 90.07556168 31.62792138 88.26887285 35 83 C39.31555008 73.59272178 38.09467168 62.01043525 38.125 51.875 C38.13200928 50.20195801 38.13200928 50.20195801 38.13916016 48.49511719 C38.13706543 47.44227539 38.1349707 46.38943359 38.1328125 45.3046875 C38.13112061 43.8813208 38.13112061 43.8813208 38.12939453 42.42919922 C38.10017746 39.85833446 38.10017746 39.85833446 37 37 C37.21076218 33.66221521 37.5782667 30.35566157 37.94140625 27.03125 C38.29190516 23.81962429 38.29190516 23.81962429 36 21 C36.66 21 37.32 21 38 21 C37.979375 20.05125 37.95875 19.1025 37.9375 18.125 C38 15 38 15 39 13 C38.01 12.505 38.01 12.505 37 12 C37.14230808 10.58297487 37.28900746 9.1663904 37.4375 7.75 C37.55931641 6.56664062 37.55931641 6.56664062 37.68359375 5.359375 C37.97665065 3.17411119 38.44756275 1.13111026 39 -1 C45.66666667 -1 52.33333333 -1 59 -1 C59.66257812 -1.01160156 60.32515625 -1.02320313 61.0078125 -1.03515625 C63.00507614 -1.06095117 65.00282955 -1.03221243 67 -1 C68.9097351 0.9097351 68.14790667 4.33875161 68.16113281 6.86791992 C68.16858017 7.94631386 68.16858017 7.94631386 68.17617798 9.04649353 C68.19085689 11.44116156 68.19761688 13.83576298 68.203125 16.23046875 C68.20887906 17.89943951 68.21463676 19.56841025 68.22039795 21.23738098 C68.23092911 24.75062366 68.23675551 28.26384336 68.24023438 31.77709961 C68.24567338 36.24302411 68.26959222 40.7086366 68.29820633 45.17446423 C68.31700588 48.63125938 68.32204778 52.08798268 68.32357025 55.5448246 C68.32656688 57.18838488 68.33449213 58.83194483 68.34775543 60.47545433 C68.48209107 78.42786163 66.3245785 94.20106082 53.44140625 107.7421875 C42.27004372 118.07346357 28.38432971 120.93527774 13.59375 120.37890625 C0.75368845 119.53541786 -10.49415018 114.02924308 -19.375 104.75 C-27.0393054 95.53084576 -30.34231431 84.3944626 -30.22705078 72.56445312 C-30.22734283 71.76349213 -30.22763489 70.96253113 -30.22793579 70.13729858 C-30.22655455 67.51850129 -30.21105086 64.89999692 -30.1953125 62.28125 C-30.19157807 60.45422521 -30.18873313 58.62719841 -30.18673706 56.8001709 C-30.17913444 52.01292299 -30.1595152 47.22579821 -30.1373291 42.43859863 C-30.11679774 37.54502019 -30.10771981 32.65142168 -30.09765625 27.7578125 C-30.07626589 18.17182118 -30.04217101 8.58592086 -30 -1 C-29.18418961 -0.99664642 -28.36837921 -0.99329285 -27.52784729 -0.98983765 C-26.45332809 -0.98722931 -25.3788089 -0.98462097 -24.27172852 -0.98193359 C-23.20841812 -0.97858002 -22.14510773 -0.97522644 -21.04957581 -0.97177124 C-16.05355783 -1.01801747 -11.12601637 -1.51461148 -6.15234375 -1.9765625 C-3 -2 -3 -2 0 0 Z " fill="#161617" transform="translate(772,455)"/>
<path d="M0 0 C1.64443789 0.25528143 3.28871695 0.51163279 4.93212891 0.7734375 C8.53620861 1.16831188 12.08502706 0.79730681 15.6875 0.5 C23.95734886 -0.17188055 23.95734886 -0.17188055 28 1 C28.90662205 4.85765331 29.11627402 8.41721786 29.09765625 12.37573242 C29.09435303 13.64442673 29.0910498 14.91312103 29.08764648 16.22026062 C29.08352753 16.89361639 29.07940857 17.56697216 29.07516479 18.26073265 C29.06232023 20.38520181 29.05586407 22.50960793 29.05102539 24.6341095 C29.03770101 29.91386156 29.01359068 35.19355401 28.98962402 40.4732666 C28.9697687 44.93353769 28.95417545 49.3937856 28.94406128 53.85408974 C28.93765232 55.93110471 28.92514163 58.00802275 28.91235352 60.08500671 C28.3460241 75.31344069 28.3460241 75.31344069 34 89 C39.22420386 93.07487901 44.39590505 94.24198211 51 94 C55.75123605 93.21691197 59.63502728 91.85181966 62.9375 88.25 C66.58265526 82.50611899 67.29806474 76.82193907 67.31884766 70.13696289 C67.32889328 69.38491577 67.3389389 68.63286865 67.34928894 67.85803223 C67.37994048 65.39624733 67.39710535 62.93457025 67.4140625 60.47265625 C67.4327887 58.75629256 67.45236318 57.03993793 67.4727478 55.32359314 C67.52392171 50.82414105 67.56362601 46.32465916 67.60089111 41.82507324 C67.64102352 37.22640704 67.69207359 32.62786322 67.7421875 28.02929688 C67.83877208 19.01961741 67.9232324 10.0098686 68 1 C71.96930989 0.97534119 75.93859034 0.95715977 79.90795898 0.94506836 C81.25920386 0.94002943 82.61044326 0.93319823 83.96166992 0.92456055 C85.90020434 0.91247581 87.838778 0.90730172 89.77734375 0.90234375 C91.52905884 0.89448853 91.52905884 0.89448853 93.31616211 0.88647461 C96 1 96 1 97 2 C97.11094299 4.36509636 97.15738286 6.70126564 97.16113281 9.06738281 C97.16858017 10.1774469 97.16858017 10.1774469 97.17617798 11.30993652 C97.19085502 13.77434202 97.1976159 16.23868284 97.203125 18.703125 C97.20887836 20.41933188 97.21463607 22.13553875 97.22039795 23.85174561 C97.23092802 27.46334126 97.23675541 31.07491457 97.24023438 34.68652344 C97.24567898 39.28257865 97.26961076 43.87833153 97.29820633 48.47429276 C97.31698188 52.02798267 97.32204649 55.58160254 97.32357025 59.13533783 C97.32657123 60.82717261 97.33451186 62.51900693 97.34775543 64.21079254 C97.46707496 80.64643095 95.83504906 96.56201663 84.0625 109.12109375 C74.32884284 117.98830794 61.22249317 123.15601762 48 123 C33.91475132 122.05874233 21.12517448 118.18030247 11 108 C-1.13118934 93.48449483 -1.31825488 75.4482848 -1.23046875 57.48046875 C-1.22927335 55.8437758 -1.22882455 54.20708216 -1.2290802 52.57038879 C-1.22753077 49.17440372 -1.21935164 45.77852638 -1.20581055 42.38256836 C-1.1886455 38.02233917 -1.18500203 33.66222572 -1.18575573 29.30196667 C-1.1854848 25.93836862 -1.18001903 22.57479604 -1.17275429 19.21120644 C-1.16956894 17.6015778 -1.16760052 15.9919463 -1.16686058 14.38231468 C-1.16470556 12.1496008 -1.15598499 9.91701315 -1.14526367 7.68432617 C-1.14145187 6.4141716 -1.13764008 5.14401703 -1.13371277 3.83537292 C-1 1 -1 1 0 0 Z " fill="#161617" transform="translate(633,453)"/>
<path d="M0 0 C1.16781006 0.00523682 2.33562012 0.01047363 3.53881836 0.01586914 C4.79887695 0.0190918 6.05893555 0.02231445 7.35717773 0.02563477 C8.6976732 0.03399136 10.03816799 0.04245632 11.37866211 0.05102539 C12.72306153 0.05603879 14.06746271 0.06060197 15.41186523 0.06469727 C18.71334151 0.07653051 22.01473014 0.09301568 25.31616211 0.11352539 C26.78491115 3.05102348 26.41928783 5.63562666 26.39794922 8.91479492 C26.39488266 9.61424728 26.3918161 10.31369965 26.38865662 11.03434753 C26.38149429 12.55616517 26.37210053 14.07797353 26.36076164 15.59976578 C26.34338384 18.01328392 26.33307475 20.42673589 26.32484436 22.84030151 C26.30038984 29.7039009 26.2650151 36.56741194 26.22021484 43.4309082 C26.19331493 47.62829878 26.17634593 51.82563712 26.16534615 56.02309799 C26.1591645 57.61858922 26.14919477 59.21407068 26.13526726 60.80951309 C26.1158826 63.05170405 26.10913119 65.29362473 26.10498047 67.53588867 C26.09752304 68.80892853 26.09006561 70.08196838 26.0823822 71.39358521 C26.50408652 78.10380617 27.90786485 83.84805922 32.31616211 89.11352539 C37.57999847 92.66355457 43.52287215 93.79437231 49.75366211 92.67602539 C54.69459767 91.24575457 57.60279849 89.67197627 60.31616211 85.11352539 C63.36663734 79.01257492 63.44012718 72.32383287 63.52148438 65.61767578 C63.53138397 64.90464294 63.54128357 64.19161011 63.55148315 63.45697021 C63.58280243 61.12507323 63.60773716 58.79315595 63.63256836 56.46118164 C63.65316351 54.8345032 63.67416061 53.2078298 63.69554138 51.5811615 C63.75049778 47.31843168 63.80002261 43.05565569 63.84838867 38.79284668 C63.89879781 34.43550553 63.95438212 30.07823067 64.00952148 25.72094727 C64.11677933 17.18519473 64.21781615 8.64938527 64.31616211 0.11352539 C73.88616211 0.11352539 83.45616211 0.11352539 93.31616211 0.11352539 C93.40709586 10.00711716 93.48023935 19.90042429 93.5234108 29.79434204 C93.54414721 34.39015423 93.57220448 38.98566185 93.61791992 43.58129883 C93.6618822 48.02932663 93.68540358 52.47706441 93.69567108 56.92529297 C93.70297327 58.60909582 93.71722787 60.29288564 93.73908234 61.9765625 C93.88086273 73.36874363 92.56072211 83.16491657 89.31616211 94.11352539 C88.97428994 95.44469492 88.63601673 96.77689458 88.31616211 98.11352539 C87.65616211 98.11352539 86.99616211 98.11352539 86.31616211 98.11352539 C86.07639648 98.83668945 85.83663086 99.55985352 85.58959961 100.30493164 C81.85157399 108.54922741 73.61866006 114.31412976 65.57006836 117.92211914 C51.29782732 123.14784965 37.04855699 123.21064781 22.90600586 117.42602539 C11.37375047 111.58162447 3.47743913 103.08667161 -0.83879089 90.85017395 C-4.09659599 80.29991146 -3.96656375 69.49113629 -3.91430664 58.57055664 C-3.91311194 56.90858496 -3.91266229 55.24661259 -3.91291809 53.5846405 C-3.91136574 50.1296252 -3.90316511 46.67471537 -3.88964844 43.21972656 C-3.8725131 38.78321214 -3.86883893 34.34681149 -3.86959362 29.91026783 C-3.86932263 26.4917644 -3.86385523 23.07328601 -3.85659218 19.65479088 C-3.85340561 18.01725135 -3.85143813 16.37970898 -3.85069847 14.74216652 C-3.84854306 12.46852315 -3.83982071 10.19500368 -3.82910156 7.92138672 C-3.82528976 6.62743484 -3.82147797 5.33348297 -3.81755066 4.00032043 C-3.63939131 0.15394496 -3.63939131 0.15394496 0 0 Z " fill="#151617" transform="translate(855.683837890625,453.886474609375)"/>
<path d="M0 0 C-0.01160156 0.92554688 -0.02320313 1.85109375 -0.03515625 2.8046875 C-0.14420389 16.21925084 0.41894114 29.60010278 1 43 C7.49223593 34.37935705 13.9572606 25.73878004 20.375 17.0625 C20.94492676 16.29510498 21.51485352 15.52770996 22.10205078 14.73706055 C22.6536084 13.98980713 23.20516602 13.24255371 23.7734375 12.47265625 C24.32660645 11.74377197 24.87977539 11.0148877 25.44970703 10.26391602 C27.07293188 8.02994801 27.07293188 8.02994801 28.17138672 5.45288086 C29.54143585 2.6614812 30.57341438 0.96558443 33 -1 C38.49657159 -2.12058887 43.80056817 -1.8509578 49.375 -1.5625 C50.8892043 -1.51731679 52.40353766 -1.47625881 53.91796875 -1.43945312 C57.61467578 -1.34065144 61.30651617 -1.18559423 65 -1 C64.3912079 2.3355863 63.22881344 4.30603624 61.12109375 6.94140625 C60.53287842 7.68511475 59.94466309 8.42882324 59.33862305 9.19506836 C58.71125244 9.9763208 58.08388184 10.75757324 57.4375 11.5625 C56.16026693 13.17874671 54.88422101 14.79593229 53.609375 16.4140625 C52.98998047 17.19813477 52.37058594 17.98220703 51.73242188 18.79003906 C45.41100554 26.35911253 45.41100554 26.35911253 41 35 C39.83411151 36.16588849 38.66471175 37.3285449 37.47509766 38.47021484 C34.56332886 41.48993402 32.16896868 44.93854684 29.6875 48.3125 C29.13771484 49.05306641 28.58792969 49.79363281 28.02148438 50.55664062 C26.67727821 52.36839676 25.33691256 54.182859 24 56 C25.82795888 59.79044731 28.09457734 63.18209472 30.5 66.625 C30.90347656 67.21023438 31.30695313 67.79546875 31.72265625 68.3984375 C33.36847023 70.76667148 34.95646628 72.95646628 37 75 C40.69716797 79.39038696 40.69716797 79.39038696 41.95483398 81.92211914 C43.04230596 84.08410792 44.29247644 85.92045317 45.72265625 87.87109375 C46.52449341 88.97130859 46.52449341 88.97130859 47.3425293 90.09375 C47.91011963 90.8671875 48.47770996 91.640625 49.0625 92.4375 C53.91129236 99.08850433 58.66220598 105.78936389 63.29296875 112.59375 C64.92506631 115.03679057 64.92506631 115.03679057 67 117 C65.515 117.495 65.515 117.495 64 118 C64 117.34 64 116.68 64 116 C63.26007813 116.15210938 62.52015625 116.30421875 61.7578125 116.4609375 C38.16158463 119.84584337 38.16158463 119.84584337 30.71289062 114.29589844 C27.02300214 110.22047114 24.36928329 105.62341215 22.04541016 100.65820312 C21.02886197 98.65747407 21.02886197 98.65747407 18 98 C18 97.01 18 96.02 18 95 C16.97752919 93.13574722 16.97752919 93.13574722 15.55078125 91.234375 C15.03193359 90.50863281 14.51308594 89.78289062 13.97851562 89.03515625 C13.42873047 88.28105469 12.87894531 87.52695312 12.3125 86.75 C11.78205078 86.01136719 11.25160156 85.27273438 10.70507812 84.51171875 C9.69628272 83.10806968 8.68466087 81.70644409 7.66918945 80.30761719 C5.43216541 77.21498135 3.21676939 74.10718624 1 71 C0.99191315 71.5593222 0.98382629 72.11864441 0.97549438 72.69491577 C0.88961651 78.50225045 0.7901211 84.30923715 0.68261719 90.11621094 C0.64427009 92.28509693 0.60942745 94.45404777 0.578125 96.62304688 C0.53259862 99.73591332 0.47458427 102.84833106 0.4140625 105.9609375 C0.39673569 107.42193375 0.39673569 107.42193375 0.37905884 108.91244507 C0.35918915 109.81322784 0.33931946 110.71401062 0.31884766 111.64208984 C0.30552399 112.43706879 0.29220032 113.23204773 0.2784729 114.05111694 C0 116 0 116 -2 118 C-2 117.34 -2 116.68 -2 116 C-6.1255669 116.10948106 -10.25018878 116.24020225 -14.375 116.375 C-15.550625 116.4059375 -16.72625 116.436875 -17.9375 116.46875 C-19.05898438 116.50742187 -20.18046875 116.54609375 -21.3359375 116.5859375 C-22.37282715 116.6173584 -23.4097168 116.6487793 -24.47802734 116.68115234 C-27.16809835 116.75954472 -27.16809835 116.75954472 -29 119 C-29.76098191 115.61671941 -30.12404161 112.4980742 -30.12025452 109.03288269 C-30.12162918 108.05838165 -30.12300385 107.08388062 -30.12442017 106.07984924 C-30.12082489 105.02249069 -30.11722961 103.96513214 -30.11352539 102.87573242 C-30.11367142 101.75334167 -30.11381744 100.63095093 -30.1139679 99.47454834 C-30.11327176 95.76816875 -30.10549328 92.06183955 -30.09765625 88.35546875 C-30.09579101 85.78428678 -30.09436761 83.21310445 -30.09336853 80.641922 C-30.08994173 74.56824059 -30.08206183 68.49457995 -30.07201904 62.42090636 C-30.06083146 55.50435862 -30.05534079 48.58781001 -30.05032361 41.67125547 C-30.0398785 27.44749396 -30.02229555 13.22374762 -30 -1 C-25.93829842 -1.22647063 -21.87572892 -1.42799496 -17.8125 -1.625 C-16.08676758 -1.72167969 -16.08676758 -1.72167969 -14.32617188 -1.8203125 C-13.21435547 -1.871875 -12.10253906 -1.9234375 -10.95703125 -1.9765625 C-9.93585205 -2.02893066 -8.91467285 -2.08129883 -7.86254883 -2.13525391 C-4.82634236 -1.99179477 -2.73398914 -1.28684147 0 0 Z " fill="#161617" transform="translate(374,455)"/>
<path d="M0 0 C0.89501757 2.55124609 1.63525461 5.01634043 2.3125 7.625 C4.20679726 14.51288354 6.43950317 21.1656523 9.0324707 27.82080078 C10.21563629 30.86480256 11.22340935 33.83281722 12 37 C12.39595853 38.29631397 12.80467452 39.58877995 13.22412109 40.87768555 C13.46919907 41.6328949 13.71427704 42.38810425 13.96678162 43.16619873 C14.36607628 44.38910614 14.36607628 44.38910614 14.7734375 45.63671875 C15.05337051 46.49702698 15.33330353 47.35733521 15.62171936 48.24371338 C16.2246832 50.09562268 16.82832951 51.94730989 17.43258667 53.79879761 C18.37905267 56.6999223 19.32261177 59.60198106 20.26586914 62.50415039 C23.26049976 71.70365451 26.28394206 80.8911741 29.41015625 90.046875 C29.9285709 91.57201376 30.4469635 93.09716002 30.96533203 94.62231445 C31.92727857 97.45056692 32.9029598 100.27358327 33.88623047 103.09448242 C34.31916657 104.36360532 34.7516492 105.63288304 35.18359375 106.90234375 C35.56056396 107.99023193 35.93753418 109.07812012 36.32592773 110.19897461 C37 113 37 113 36 117 C27.75 116.67 19.5 116.34 11 116 C10.67 116.66 10.34 117.32 10 118 C7.67182988 115.16867223 6.40840938 112.7491525 5.39453125 109.234375 C5.15839111 108.43225586 4.92225098 107.63013672 4.67895508 106.80371094 C4.3930249 105.79598633 4.10709473 104.78826172 3.8125 103.75 C2.884375 100.5325 1.95625 97.315 1 94 C-11.87 94 -24.74 94 -38 94 C-40.28944927 100.10519805 -42.28626502 106.10595672 -44.1328125 112.33984375 C-45 115 -45 115 -46 116 C-49.8817622 116.41424235 -53.78835383 116.51757788 -57.6875 116.6875 C-58.77740234 116.74744141 -59.86730469 116.80738281 -60.99023438 116.86914062 C-71.33455542 117.32874832 -71.33455542 117.32874832 -76 115 C-76.33 114.34 -76.66 113.68 -77 113 C-76.01 113 -75.02 113 -74 113 C-72.09648616 106.14195015 -70.32516208 99.27670111 -68.74609375 92.3359375 C-68.37677734 91.17964844 -68.37677734 91.17964844 -68 90 C-67.01 89.505 -67.01 89.505 -66 89 C-65.52336315 86.92322517 -65.05656778 84.84368327 -64.640625 82.75390625 C-63.67345089 78.59623706 -62.22793871 74.62198746 -60.8046875 70.6015625 C-59.85225164 67.97618962 -59.85225164 67.97618962 -60 65 C-59.34 65 -58.68 65 -58 65 C-57.88589783 64.44960556 -57.77179565 63.89921112 -57.65423584 63.33213806 C-56.49979992 57.93256423 -55.07471017 52.69764902 -53.390625 47.44140625 C-53.1413324 46.6533812 -52.89203979 45.86535614 -52.63519287 45.05345154 C-52.10918609 43.39321574 -51.58134934 41.73355869 -51.05175781 40.07446289 C-50.26229369 37.60101697 -49.478274 35.12590164 -48.6953125 32.65039062 C-46.0687356 24.36462751 -43.39655863 16.09387729 -40.671875 7.83984375 C-40.29147064 6.67806358 -40.29147064 6.67806358 -39.90338135 5.49281311 C-38.11686698 0.11686698 -38.11686698 0.11686698 -37 -1 C-34.51632316 -1.18474416 -32.05803627 -1.30829125 -29.5703125 -1.38671875 C-28.82417694 -1.41224319 -28.07804138 -1.43776764 -27.30929565 -1.46406555 C-25.72727682 -1.5161645 -24.14516774 -1.56558038 -22.56298828 -1.61254883 C-20.14173604 -1.68698548 -17.72144198 -1.77766933 -15.30078125 -1.86914062 C-13.76565634 -1.91766854 -12.2305004 -1.9652264 -10.6953125 -2.01171875 C-9.97022491 -2.04077805 -9.24513733 -2.06983734 -8.49807739 -2.09977722 C-4.73522942 -2.19391976 -3.22245561 -2.14830374 0 0 Z M-19 28 C-24.7279891 44.86439963 -24.7279891 44.86439963 -30 61.875 C-30.20713623 62.57488037 -30.41427246 63.27476074 -30.62768555 63.99584961 C-31.65710017 67.44180556 -31.65710017 67.44180556 -32 71 C-26.45778869 72.2428547 -21.24109437 71.91100229 -15.625 71.5625 C-14.69816406 71.51029297 -13.77132812 71.45808594 -12.81640625 71.40429688 C-10.54386099 71.27544122 -8.27184901 71.14051689 -6 71 C-7.60648539 61.71192933 -10.34845207 52.86351842 -13.125 43.875 C-13.59809821 42.33086451 -14.07075795 40.7865946 -14.54296875 39.2421875 C-15.69026488 35.49322339 -16.84347348 31.74612638 -18 28 C-18.33 28 -18.66 28 -19 28 Z " fill="#161617" transform="translate(516,455)"/>
<path d="M0 0 C1.12591553 0.00523682 2.25183105 0.01047363 3.41186523 0.01586914 C4.62680664 0.0190918 5.84174805 0.02231445 7.09350586 0.02563477 C8.37290039 0.03401367 9.65229492 0.04239258 10.97045898 0.05102539 C12.2537207 0.05553711 13.53698242 0.06004883 14.85913086 0.06469727 C18.04211921 0.07652994 21.22501661 0.09301471 24.40795898 0.11352539 C25.93140475 3.16041692 25.55526785 6.33468874 25.55322266 9.67749023 C25.55658127 10.45829956 25.55993988 11.23910889 25.56340027 12.0435791 C25.57293304 14.63722306 25.57485534 17.23080248 25.57592773 19.82446289 C25.57914157 21.63131741 25.58250574 23.43817166 25.58601379 25.24502563 C25.59201287 29.04315798 25.59385318 32.84126755 25.59326172 36.6394043 C25.59316071 41.47871613 25.60674592 46.31787922 25.62403393 51.15715599 C25.63522678 54.89609428 25.63717861 58.63499764 25.63665199 62.37395096 C25.63782374 64.15591565 25.64219969 65.93788149 25.64998436 67.71982956 C25.74942725 92.86107746 25.74942725 92.86107746 20.40795898 102.67602539 C19.89233398 103.64668945 19.37670898 104.61735352 18.84545898 105.61743164 C17.76707162 107.48995753 16.60658288 109.31558955 15.40795898 111.11352539 C14.74795898 111.11352539 14.08795898 111.11352539 13.40795898 111.11352539 C13.40795898 111.77352539 13.40795898 112.43352539 13.40795898 113.11352539 C3.8603362 121.39274418 -7.0837417 123.12233758 -19.37768555 122.35131836 C-25.9100499 121.64982741 -32.27598363 119.8645116 -38.59204102 118.11352539 C-37.60204102 117.61852539 -37.60204102 117.61852539 -36.59204102 117.11352539 C-36.59204102 107.54352539 -36.59204102 97.97352539 -36.59204102 88.11352539 C-32.63204102 89.76352539 -28.67204102 91.41352539 -24.59204102 93.11352539 C-18.36399931 94.34274415 -13.45131193 94.74009511 -7.59204102 92.11352539 C-3.30746484 83.45806503 -4.13220631 73.76631987 -4.11547852 64.33227539 C-4.10115382 62.50906225 -4.08539418 60.68585987 -4.06826782 58.8626709 C-4.02660216 54.08905153 -4.00147458 49.315499 -3.98077393 44.54174805 C-3.94481031 36.87334661 -3.8841108 29.20510926 -3.8222847 21.53688049 C-3.80315722 18.85731045 -3.79145942 16.17778472 -3.78085327 13.49816895 C-3.77064906 11.86930237 -3.76029181 10.24043673 -3.74975586 8.61157227 C-3.74819237 7.48803345 -3.74819237 7.48803345 -3.74659729 6.34179688 C-3.69691493 0.16191631 -3.69691493 0.16191631 0 0 Z " fill="#161617" transform="translate(593.592041015625,452.886474609375)"/>
<path d="M0 0 C9.36497408 5.01152667 19.74471295 17.19433853 24 27 C23.13956769 30.83179188 21.26580529 33.05299294 18.5625 35.8125 C14.00021265 40.72573254 10.38700805 46.14260019 6.76977539 51.7668457 C5.58609239 53.56150325 4.30031207 55.28795745 3 57 C2.01 57 1.02 57 0 57 C-1.62109375 54.8671875 -1.62109375 54.8671875 -3.4375 51.875 C-7.17225014 46.00809773 -11.38047772 40.86934104 -16.05053711 35.72216797 C-20.45013127 30.78909541 -20.45013127 30.78909541 -21 27 C-17.32814739 19.56038818 -10.85903984 13.14244515 -5.453125 6.8828125 C-3.54195896 4.63688807 -1.72903458 2.38606772 0 0 Z " fill="#151516" transform="translate(206,328)"/>
<path d="M0 0 C6.52212994 0 12.73204896 0.02620543 19.1875 0.5 C21.12689453 0.63921875 21.12689453 0.63921875 23.10546875 0.78125 C24.06066406 0.8534375 25.01585937 0.925625 26 1 C26 1.66 26 2.32 26 3 C18.08 3 10.16 3 2 3 C2 29.4 2 55.8 2 83 C1.34 82.67 0.68 82.34 0 82 C0 54.94 0 27.88 0 0 Z " fill="#060606" transform="translate(742,454)"/>
<path d="M0 0 C1.64443789 0.25528143 3.28871695 0.51163279 4.93212891 0.7734375 C8.53620861 1.16831188 12.08502706 0.79730681 15.6875 0.5 C23.95734886 -0.17188055 23.95734886 -0.17188055 28 1 C29.26264601 5.29299643 28.62950412 7.87831311 27 12 C26.67 12 26.34 12 26 12 C26 9.36 26 6.72 26 4 C17.42 4 8.84 4 0 4 C0 26.11 0 48.22 0 71 C-0.33 71 -0.66 71 -1 71 C-1.02312545 61.89040835 -1.04091612 52.78082674 -1.05181217 43.6712122 C-1.05704056 39.44168629 -1.0641374 35.2121804 -1.07543945 30.98266602 C-1.08626991 26.90431457 -1.09227717 22.82598243 -1.09487724 18.74761772 C-1.09673121 17.18822361 -1.10035127 15.6288306 -1.10573006 14.06944466 C-1.11294262 11.89270838 -1.11399085 9.71605286 -1.11352539 7.53930664 C-1.115746 6.29798477 -1.11796661 5.0566629 -1.12025452 3.77772522 C-1 1 -1 1 0 0 Z " fill="#282828" transform="translate(633,453)"/>
<path d="M0 0 C-9.24 0 -18.48 0 -28 0 C-27.67 4.95 -27.34 9.9 -27 15 C-26.67 15 -26.34 15 -26 15 C-26 30.18 -26 45.36 -26 61 C-26.66 61 -27.32 61 -28 61 C-28.95096181 47.27913273 -29.12244074 33.62518004 -29.0625 19.875 C-29.05746809 17.8372407 -29.05290822 15.79948018 -29.04882812 13.76171875 C-29.03797224 8.84111481 -29.02080377 3.92057152 -29 -1 C-24.91744345 -1.22601462 -20.83403925 -1.42774673 -16.75 -1.625 C-15.01169922 -1.72167969 -15.01169922 -1.72167969 -13.23828125 -1.8203125 C-12.12324219 -1.871875 -11.00820313 -1.9234375 -9.859375 -1.9765625 C-8.31975098 -2.05511475 -8.31975098 -2.05511475 -6.74902344 -2.13525391 C-4 -2 -4 -2 0 0 Z " fill="#232424" transform="translate(373,455)"/>
<path d="M0 0 C0.33 0 0.66 0 1 0 C1 16.5 1 33 1 50 C0.67 49.34 0.34 48.68 0 48 C-6.93 48 -13.86 48 -21 48 C-21.33 47.34 -21.66 46.68 -22 46 C-15.07 46 -8.14 46 -1 46 C-1.01160156 42.76316406 -1.02320313 39.52632812 -1.03515625 36.19140625 C-1.04294587 33.07055764 -1.04902317 29.94971009 -1.05493164 26.82885742 C-1.05997308 24.65307127 -1.06680607 22.47728853 -1.07543945 20.30151367 C-1.08751338 17.18146933 -1.09323005 14.06146962 -1.09765625 10.94140625 C-1.10281754 9.96224747 -1.10797882 8.98308868 -1.11329651 7.97425842 C-1.11337204 7.07340012 -1.11344757 6.17254181 -1.11352539 5.24438477 C-1.115746 4.44718521 -1.11796661 3.64998566 -1.12025452 2.82862854 C-1 1 -1 1 0 0 Z " fill="#050506" transform="translate(372,523)"/>
<path d="M0 0 C18.21179276 3.58401414 36.09445045 24.60182688 46.06640625 39.0546875 C47 41 47 41 46 44 C45.47792969 43.27296875 44.95585937 42.5459375 44.41796875 41.796875 C32.60212741 25.65614603 18.54264651 10.4498136 0 2 C0 1.34 0 0.68 0 0 Z " fill="#0F0F0F" transform="translate(150,346)"/>
<path d="M0 0 C0.33 0.99 0.66 1.98 1 3 C2.69286801 6.84281039 5.10475341 10.19665984 7.5 13.625 C7.90347656 14.21023438 8.30695313 14.79546875 8.72265625 15.3984375 C10.36847023 17.76667148 11.95646628 19.95646628 14 22 C17.70648897 26.40145565 17.70648897 26.40145565 18.93286133 28.90234375 C20.108104 31.21249819 21.50146633 33.12831723 23.07421875 35.1875 C23.95110352 36.35925781 23.95110352 36.35925781 24.84570312 37.5546875 C26.07782231 39.19054457 27.3174828 40.82074762 28.56445312 42.4453125 C29.14517578 43.22648438 29.72589844 44.00765625 30.32421875 44.8125 C30.86135498 45.52019531 31.39849121 46.22789062 31.9519043 46.95703125 C33 49 33 49 32.66723633 51.26171875 C32.44704834 51.83535156 32.22686035 52.40898438 32 53 C31.28457031 51.98164062 30.56914062 50.96328125 29.83203125 49.9140625 C24.91261227 42.92282575 19.97713497 35.94516743 14.96020508 29.0234375 C12.80527925 26.05015712 10.65951543 23.07030754 8.51318359 20.09082031 C7.06675577 18.09223886 5.60650626 16.10440764 4.14453125 14.1171875 C3.30403623 12.95359515 2.46415028 11.78956251 1.625 10.625 C0.53058594 9.12839844 0.53058594 9.12839844 -0.5859375 7.6015625 C-2 5 -2 5 -1.7890625 2.7109375 C-1 1 -1 1 0 0 Z " fill="#0E0E0E" transform="translate(397,508)"/>
<path d="M0 0 C0.33 0 0.66 0 1 0 C1.06058594 0.67546875 1.12117187 1.3509375 1.18359375 2.046875 C1.26738281 2.93890625 1.35117187 3.8309375 1.4375 4.75 C1.51871094 5.63171875 1.59992187 6.5134375 1.68359375 7.421875 C1.92525206 9.90391439 1.92525206 9.90391439 2.51268005 11.87457275 C3.04187341 14.18262928 3.12017336 16.21828233 3.11352539 18.58496094 C3.11344986 19.48559265 3.11337433 20.38622437 3.11329651 21.31414795 C3.10813522 22.27782288 3.10297394 23.2414978 3.09765625 24.234375 C3.0962413 25.22753723 3.09482635 26.22069946 3.09336853 27.24395752 C3.08777588 30.41266912 3.0752247 33.58130979 3.0625 36.75 C3.05748405 38.89973856 3.05292131 41.04947823 3.04882812 43.19921875 C3.03780886 48.46616999 3.021078 53.73307993 3 59 C2.34 59 1.68 59 1 59 C0.27555306 55.10023593 -0.12301012 51.41823083 -0.11352539 47.45361328 C-0.11344986 46.39296661 -0.11337433 45.33231995 -0.11329651 44.23953247 C-0.10813522 43.11118988 -0.10297394 41.98284729 -0.09765625 40.8203125 C-0.09553383 39.06846146 -0.09553383 39.06846146 -0.09336853 37.28121948 C-0.08778498 33.56245326 -0.07523544 29.84374793 -0.0625 26.125 C-0.05748288 23.5989592 -0.05292034 21.07291746 -0.04882812 18.546875 C-0.03782093 12.36456267 -0.02109913 6.18228569 0 0 Z " fill="#0E0E0E" transform="translate(769,477)"/>
<path d="M0 0 C0.99 0.33 1.98 0.66 3 1 C2.34 1 1.68 1 1 1 C0.67 1.99 0.34 2.98 0 4 C-1.49609375 5.21875 -1.49609375 5.21875 -3.4375 6.5 C-9.13378194 10.58646313 -15.82787598 16.65575196 -19 23 C-19.66 23 -20.32 23 -21 23 C-21.26941406 23.73347656 -21.53882813 24.46695312 -21.81640625 25.22265625 C-22.96121929 27.90899971 -24.26658364 30.05229878 -25.9375 32.4375 C-28.28291615 35.86673926 -30.26065595 39.23142122 -32 43 C-32.66 42.67 -33.32 42.34 -34 42 C-29.53526764 26.47753671 -14.3069319 10.92261437 -2 1 C-1.34 0.67 -0.68 0.34 0 0 Z " fill="#0E0E0E" transform="translate(244,358)"/>
<path d="M0 0 C0.33 0 0.66 0 1 0 C0.88437394 1.39664108 0.757008 2.79231199 0.625 4.1875 C0.55539062 4.96480469 0.48578125 5.74210938 0.4140625 6.54296875 C0 9 0 9 -2 14 C11.365 14.495 11.365 14.495 25 15 C25 15.66 25 16.32 25 17 C21.03069011 17.02465881 17.06140966 17.04284023 13.09204102 17.05493164 C11.74079614 17.05997057 10.38955674 17.06680177 9.03833008 17.07543945 C7.09979566 17.08752419 5.161222 17.09269828 3.22265625 17.09765625 C1.47094116 17.10551147 1.47094116 17.10551147 -0.31616211 17.11352539 C-3 17 -3 17 -4 16 C-3.94937036 10.10164667 -2.57285492 5.25757309 0 0 Z " fill="#0C0C0D" transform="translate(486,512)"/>
<path d="M0 0 C0.33 0 0.66 0 1 0 C0.85688704 1.85437862 0.71036549 3.70849429 0.5625 5.5625 C0.48128906 6.59503906 0.40007812 7.62757813 0.31640625 8.69140625 C0.11159916 10.83303105 -0.15675358 12.96991276 -0.5 15.09375 C-1.21705803 20.69576585 -1.36687201 26.29635837 -1.5625 31.9375 C-1.60568359 33.09830078 -1.64886719 34.25910156 -1.69335938 35.45507812 C-1.79884842 38.30328232 -1.90096555 41.15156529 -2 44 C-5.08199514 39.37700729 -4.3382315 34.69082699 -4.3125 29.25 C-4.31048584 28.12722656 -4.30847168 27.00445312 -4.30639648 25.84765625 C-4.0445205 4.0445205 -4.0445205 4.0445205 0 0 Z " fill="#0C0C0D" transform="translate(188,427)"/>
<path d="M0 0 C9.24 0 18.48 0 28 0 C27.67 0.99 27.34 1.98 27 3 C18.75 2.67 10.5 2.34 2 2 C2.04125 4.083125 2.0825 6.16625 2.125 8.3125 C2.25 14.625 2.25 14.625 0 18 C0 12.06 0 6.12 0 0 Z " fill="#030404" transform="translate(345,455)"/>
<path d="M0 0 C0.33 0 0.66 0 1 0 C1 12.54 1 25.08 1 38 C0.01 37.67 -0.98 37.34 -2 37 C-2.04943465 32.21282458 -2.08573582 27.42579773 -2.10986328 22.63842773 C-2.11992142 21.00982068 -2.13356958 19.38123168 -2.15087891 17.75268555 C-2.17513574 15.41190128 -2.18648483 13.07135576 -2.1953125 10.73046875 C-2.20563507 10.00224411 -2.21595764 9.27401947 -2.22659302 8.52372742 C-2.22742249 4.78724931 -2.12883296 3.19324944 0 0 Z " fill="#100F10" transform="translate(197,534)"/>
<path d="M0 0 C0.495 1.485 0.495 1.485 1 3 C-6.83483636 11.8141909 -17.09325655 20.25703185 -28 25 C-30.25 24.625 -30.25 24.625 -32 24 C-31.11699219 23.52691406 -30.23398438 23.05382812 -29.32421875 22.56640625 C-18.21572803 16.49351583 -8.71028415 9.24538694 0 0 Z " fill="#0E0E0E" transform="translate(269,474)"/>
<path d="M0 0 C-0.33 0.99 -0.66 1.98 -1 3 C-1.66 3 -2.32 3 -3 3 C-3 3.66 -3 4.32 -3 5 C-3.763125 5.70125 -4.52625 6.4025 -5.3125 7.125 C-12.18087896 14.47256819 -11.52417349 23.4710647 -11.6875 33 C-11.72073151 34.36070879 -11.75522641 35.72138733 -11.79101562 37.08203125 C-11.87307713 40.38793761 -11.94236713 43.6935926 -12 47 C-12.33 47 -12.66 47 -13 47 C-13.29428107 42.6272753 -13.54461507 38.25473573 -13.75683594 33.87744141 C-13.8347072 32.3930606 -13.92395807 30.90922662 -14.02539062 29.42626953 C-14.66560915 19.93182884 -14.5141838 12.6060443 -8 5 C-3.15034364 0 -3.15034364 0 0 0 Z " fill="#202020" transform="translate(229,641)"/>
<path d="M0 0 C0.99 0.495 0.99 0.495 2 1 C2.66 2.98 3.32 4.96 4 7 C16.87 7.495 16.87 7.495 30 8 C30 8.99 30 9.98 30 11 C21.75 10.67 13.5 10.34 5 10 C4.67 10.66 4.34 11.32 4 12 C0.46209597 8.30827405 0.40884117 4.90609405 0 0 Z " fill="#0A090A" transform="translate(522,561)"/>
<path d="M0 0 C5.94 2.475 5.94 2.475 12 5 C11.01 6.485 11.01 6.485 10 8 C7.69 7.01 5.38 6.02 3 5 C3 9.95 3 14.9 3 20 C2.67 20 2.34 20 2 20 C2 23.3 2 26.6 2 30 C0.68 29.67 -0.64 29.34 -2 29 C-1.34 29 -0.68 29 0 29 C0 19.43 0 9.86 0 0 Z " fill="#1D1D1D" transform="translate(557,541)"/>
<path d="M0 0 C11.22 0 22.44 0 34 0 C34 0.66 34 1.32 34 2 C23.44 2 12.88 2 2 2 C1.67 2.99 1.34 3.98 1 5 C0.67 5 0.34 5 0 5 C0 3.35 0 1.7 0 0 Z " fill="#050505" transform="translate(478,455)"/>
<path d="M0 0 C0.99 0.33 1.98 0.66 3 1 C2.3709375 1.556875 1.741875 2.11375 1.09375 2.6875 C-7.05106385 9.94914127 -14.70958171 17.0409194 -21 26 C-21.66 25.34 -22.32 24.68 -23 24 C-6.33333333 4.22222222 -6.33333333 4.22222222 0 0 Z " fill="#0E0E0E" transform="translate(267,530)"/>
<path d="M0 0 C0.66 0 1.32 0 2 0 C1.40152299 3.70044235 -0.17163932 5.72247567 -2.5625 8.5625 C-6.34960369 13.14653018 -9.82823729 17.88048489 -13.23828125 22.75 C-15 25 -15 25 -18 27 C-17.37923187 23.53625113 -16.04539763 21.3938635 -13.9453125 18.59375 C-13.33042969 17.76746094 -12.71554687 16.94117188 -12.08203125 16.08984375 C-11.43621094 15.23519531 -10.79039062 14.38054687 -10.125 13.5 C-9.48691406 12.64535156 -8.84882813 11.79070312 -8.19140625 10.91015625 C-6.46680267 8.60228382 -4.73469088 6.30029376 -3 4 C-2.47776855 3.24912109 -1.95553711 2.49824219 -1.41748047 1.72460938 C-0.94971191 1.15548828 -0.48194336 0.58636719 0 0 Z " fill="#0E0E0F" transform="translate(398,467)"/>
<path d="M0 0 C2.95239108 2.95239108 2.95171615 5.78252013 3.11352539 9.86254883 C3.10567017 11.39431763 3.10567017 11.39431763 3.09765625 12.95703125 C3.09443359 14.06884766 3.09121094 15.18066406 3.08789062 16.32617188 C3.07951172 17.47666016 3.07113281 18.62714844 3.0625 19.8125 C3.05798828 20.98232422 3.05347656 22.15214844 3.04882812 23.35742188 C3.0370693 26.23833358 3.02063426 29.11914044 3 32 C2.34 31.67 1.68 31.34 1 31 C-0.6372911 20.86733053 -0.11154208 10.23708421 0 0 Z " fill="#0D0D0D" transform="translate(195,649)"/>
<path d="M0 0 C1.00109515 3.31070838 1.10356134 6.30084769 1.0625 9.75 C1.05347656 10.73484375 1.04445313 11.7196875 1.03515625 12.734375 C1.02355469 13.48203125 1.01195312 14.2296875 1 15 C0.34 15 -0.32 15 -1 15 C-1 25.23 -1 35.46 -1 46 C-1.33 46 -1.66 46 -2 46 C-2.05059881 39.77038023 -2.08569062 33.5408132 -2.10986328 27.31103516 C-2.11993751 25.1905723 -2.13359733 23.07012339 -2.15087891 20.94970703 C-2.17506489 17.90654057 -2.18646869 14.86355734 -2.1953125 11.8203125 C-2.20563507 10.86818878 -2.21595764 9.91606506 -2.22659302 8.93508911 C-2.22674408 8.05432709 -2.22689514 7.17356506 -2.22705078 6.26611328 C-2.231492 5.48889923 -2.23593323 4.71168518 -2.24050903 3.91091919 C-2 2 -2 2 0 0 Z " fill="#0F0F0F" transform="translate(373,455)"/>
<path d="M0 0 C0.33 0 0.66 0 1 0 C1 9.24 1 18.48 1 28 C0.34 28 -0.32 28 -1 28 C-2.96904441 5.56695828 -2.96904441 5.56695828 0 0 Z " fill="#0E0E0E" transform="translate(346,541)"/>
<path d="M0 0 C0.33 0 0.66 0 1 0 C1.7903481 10.15293327 2.14727634 19.85101699 1 30 C-1 28 -1 28 -1.24291992 25.31030273 C-1.23881104 24.19598877 -1.23470215 23.0816748 -1.23046875 21.93359375 C-1.22853516 20.72638672 -1.22660156 19.51917969 -1.22460938 18.27539062 C-1.21236328 17.00888672 -1.20011719 15.74238281 -1.1875 14.4375 C-1.18685547 13.16712891 -1.18621094 11.89675781 -1.18554688 10.58789062 C-1.14010053 1.14010053 -1.14010053 1.14010053 0 0 Z " fill="#080909" transform="translate(660,502)"/>
<path d="M0 0 C0.33 0 0.66 0 1 0 C1.91299547 6.64795961 1.98938155 12.87468898 1.5625 19.5625 C1.51029297 20.47580078 1.45808594 21.38910156 1.40429688 22.33007812 C1.27622505 24.55387081 1.14136041 26.77701936 1 29 C0.34 29.33 -0.32 29.66 -1 30 C-1.02465746 25.8882744 -1.04283959 21.77657722 -1.05493164 17.66479492 C-1.0599708 16.26504772 -1.06680216 14.8653058 -1.07543945 13.46557617 C-1.0875232 11.45754223 -1.09269807 9.44947043 -1.09765625 7.44140625 C-1.10289307 6.23170166 -1.10812988 5.02199707 -1.11352539 3.77563477 C-1 1 -1 1 0 0 Z " fill="#060606" transform="translate(660,465)"/>
<path d="M0 0 C0.58136719 0.64453125 1.16273438 1.2890625 1.76171875 1.953125 C6.59359345 5.00728947 11.20427646 4.67462986 16.8125 4.75 C18.42415039 4.79447266 18.42415039 4.79447266 20.06835938 4.83984375 C22.71231427 4.91034921 25.3553973 4.96314143 28 5 C24.49355233 8.50644767 19.31062231 7.36926209 14.5625 7.375 C13.49966797 7.39949219 12.43683594 7.42398438 11.34179688 7.44921875 C10.32279297 7.45308594 9.30378906 7.45695313 8.25390625 7.4609375 C7.31877197 7.46915527 6.3836377 7.47737305 5.42016602 7.48583984 C3 7 3 7 1.17163086 5.15869141 C0 3 0 3 0 0 Z " fill="#060606" transform="translate(404,564)"/>
<path d="M0 0 C0.33 0 0.66 0 1 0 C1.07441989 4.18087152 1.12872818 8.3613873 1.16479492 12.54272461 C1.1798376 13.96369141 1.20027704 15.38461213 1.22631836 16.80541992 C1.26290347 18.85346886 1.27977097 20.9009015 1.29296875 22.94921875 C1.31653442 24.79519653 1.31653442 24.79519653 1.34057617 26.6784668 C0.97170992 30.27590431 0.16550499 32.13679833 -2 35 C-5.1587455 36.47408123 -7.69447248 35.82638188 -11 35 C-11 34.67 -11 34.34 -11 34 C-8.36 33.34 -5.72 32.68 -3 32 C-0.95507463 25.15033128 -0.57949309 18.62317597 -0.375 11.5 C-0.33632812 10.39140625 -0.29765625 9.2828125 -0.2578125 8.140625 C-0.16424757 5.42724203 -0.07850517 2.71385339 0 0 Z " fill="#090909" transform="translate(215,660)"/>
<path d="M0 0 C2.50697069 3.10033654 4.17965131 6.27352953 5.875 9.875 C8.15218793 14.53184932 10.44965827 18.24081464 14 22 C13.01 22.33 12.02 22.66 11 23 C-0.69444444 7.63888889 -0.69444444 7.63888889 0 0 Z " fill="#0E0F0F" transform="translate(855,540)"/>
<path d="M0 0 C4.95 0 9.9 0 15 0 C17.27678571 8.03571429 17.27678571 8.03571429 16 12 C14.00476166 8.87701826 12.91458218 6.65832872 12 3 C7.71 2.67 3.42 2.34 -1 2 C-0.67 1.34 -0.34 0.68 0 0 Z " fill="#0A0A09" transform="translate(505,546)"/>
<path d="M0 0 C0.47114738 2.7427508 0.17805784 5.19558897 0 8 C-0.33 8.33 -0.66 8.66 -1 9 C-1.23075082 10.34747084 -1.41153063 11.70377565 -1.5625 13.0625 C-1.706875 14.361875 -1.85125 15.66125 -2 17 C-2.33 17 -2.66 17 -3 17 C-3.33 11.39 -3.66 5.78 -4 0 C-8.62 0 -13.24 0 -18 0 C-18 -0.33 -18 -0.66 -18 -1 C-15.56304285 -1.22181406 -13.126474 -1.42791119 -10.6875 -1.625 C-9.99720703 -1.68945312 -9.30691406 -1.75390625 -8.59570312 -1.8203125 C-4.7440028 -2.11802847 -3.31145584 -2.20763723 0 0 Z " fill="#242423" transform="translate(772,455)"/>
<path d="M0 0 C3.26190153 2.17460102 3.50136701 2.64454302 4.60546875 6.17578125 C4.86650391 7.00400391 5.12753906 7.83222656 5.39648438 8.68554688 C5.65751953 9.55244141 5.91855469 10.41933594 6.1875 11.3125 C6.46013672 12.16779297 6.73277344 13.02308594 7.01367188 13.90429688 C8.31107101 18.10214722 9.1508644 21.57220313 9 26 C6.75512464 23.75512464 6.26608746 22.30086068 5.2734375 19.31640625 C4.809375 17.92518555 4.809375 17.92518555 4.3359375 16.50585938 C4.01882813 15.53455078 3.70171875 14.56324219 3.375 13.5625 C3.05015625 12.59505859 2.7253125 11.62761719 2.390625 10.63085938 C0 3.3936942 0 3.3936942 0 0 Z " fill="#0C0C0D" transform="translate(527,496)"/>
<path d="M0 0 C4.3417082 2.40300923 7.94850718 5.34010641 11.6875 8.5625 C12.26822266 9.05685547 12.84894531 9.55121094 13.44726562 10.06054688 C15.69793348 11.98337179 17.90607065 13.90607065 20 16 C15.33299098 15.50873589 12.9527199 13.64642684 9.4375 10.625 C5.65609364 7.37191468 5.65609364 7.37191468 1.66015625 4.3984375 C1.11230469 3.93695312 0.56445312 3.47546875 0 3 C0 2.01 0 1.02 0 0 Z " fill="#0F0F0F" transform="translate(155,612)"/>
<path d="M0 0 C0 0.33 0 0.66 0 1 C-5.5102485 3.32492213 -10.51112885 3.23374511 -16.375 3.125 C-17.76525391 3.11146484 -17.76525391 3.11146484 -19.18359375 3.09765625 C-21.45600077 3.07422937 -23.7278618 3.04142748 -26 3 C-26.33 2.34 -26.66 1.68 -27 1 C-24.18766245 0.8301069 -21.37518151 0.66401768 -18.5625 0.5 C-17.77939453 0.45230469 -16.99628906 0.40460938 -16.18945312 0.35546875 C-10.78341953 0.04401002 -5.41503945 -0.04336368 0 0 Z " fill="#101010" transform="translate(729,454)"/>
<path d="M0 0 C0.33 0.99 0.66 1.98 1 3 C-6.92 3.33 -14.84 3.66 -23 4 C-22.67 3.01 -22.34 2.02 -22 1 C-11.11 0.505 -11.11 0.505 0 0 Z " fill="#030304" transform="translate(469,568)"/>
<path d="M0 0 C1.12047725 3.36143175 0.8842787 4.14919682 -0.14453125 7.4140625 C-0.40943359 8.25710938 -0.67433594 9.10015625 -0.94726562 9.96875 C-1.23279297 10.8453125 -1.51832031 11.721875 -1.8125 12.625 C-2.08642578 13.50929688 -2.36035156 14.39359375 -2.64257812 15.3046875 C-4.20080078 20.17740294 -4.20080078 20.17740294 -5 22 C-5.66 22.33 -6.32 22.66 -7 23 C-7.33 21.35 -7.66 19.7 -8 18 C-7.34 18 -6.68 18 -6 18 C-5.89042969 17.443125 -5.78085937 16.88625 -5.66796875 16.3125 C-2.87633262 2.87633262 -2.87633262 2.87633262 0 0 Z " fill="#0C0C0D" transform="translate(464,502)"/>
<path d="M0 0 C0.33 0.99 0.66 1.98 1 3 C0.06139153 4.87721693 -0.88552035 6.7509463 -1.8828125 8.59765625 C-3.5535081 12.19023595 -4.38952025 15.93047776 -5.2890625 19.77734375 C-5.52367187 20.51082031 -5.75828125 21.24429687 -6 22 C-6.66 22.33 -7.32 22.66 -8 23 C-7.60456807 15.09136132 -5.79373751 5.79373751 0 0 Z " fill="#0B0B0C" transform="translate(209,402)"/>
<path d="M0 0 C0.94875 0.825 1.8975 1.65 2.875 2.5 C6.78819645 5.86102762 10.81633254 9.06772985 14.86328125 12.265625 C17 14 17 14 19 16 C13.0096391 15.69046767 10.23785339 13.09827692 6.125 9.125 C5.53203125 8.58230469 4.9390625 8.03960937 4.328125 7.48046875 C2.81692644 6.0563208 1.40032813 4.53329697 0 3 C0 2.01 0 1.02 0 0 Z " fill="#0F0F0F" transform="translate(147,477)"/>
<path d="M0 0 C0.33 0 0.66 0 1 0 C1.19732164 4.22876835 1.38114059 8.45801938 1.5625 12.6875 C1.61857422 13.88568359 1.67464844 15.08386719 1.73242188 16.31835938 C1.78076172 17.47529297 1.82910156 18.63222656 1.87890625 19.82421875 C1.9260376 20.88729248 1.97316895 21.95036621 2.02172852 23.0456543 C2.0011179 25.84800382 1.6525411 28.2821773 1 31 C0.34 31 -0.32 31 -1 31 C-0.67 20.77 -0.34 10.54 0 0 Z " fill="#0F1010" transform="translate(286,413)"/>
<path d="M0 0 C0.33 0 0.66 0 1 0 C0.62834433 5.94649079 -1.14658603 10.37830412 -5 15 C-5.66 15 -6.32 15 -7 15 C-7 15.66 -7 16.32 -7 17 C-10.46153846 20 -10.46153846 20 -13 20 C-12 17 -12 17 -9.75 15.375 C-5.00925989 11.28072445 -2.75568356 5.53653317 0 0 Z " fill="#0E0E0E" transform="translate(614,549)"/>
<path d="M0 0 C0.56847656 0.22945312 1.13695312 0.45890625 1.72265625 0.6953125 C0.98660156 1.22640625 0.25054687 1.7575 -0.5078125 2.3046875 C-1.48363281 3.01109375 -2.45945312 3.7175 -3.46484375 4.4453125 C-4.90923828 5.48945312 -4.90923828 5.48945312 -6.3828125 6.5546875 C-9.06863589 8.54096445 -11.68401168 10.59030438 -14.27734375 12.6953125 C-14.93734375 12.3653125 -15.59734375 12.0353125 -16.27734375 11.6953125 C-13.273722 8.4979087 -10.10285755 5.61011264 -6.71484375 2.8203125 C-5.97105469 2.20414063 -5.22726562 1.58796875 -4.4609375 0.953125 C-2.27734375 -0.3046875 -2.27734375 -0.3046875 0 0 Z " fill="#111010" transform="translate(287.27734375,516.3046875)"/>
<path d="M0 0 C0.33 0.66 0.66 1.32 1 2 C0.34 2 -0.32 2 -1 2 C-2.07525194 4.65228812 -3.09456151 7.28368454 -4 10 C-3.02792965 11.67580052 -3.02792965 11.67580052 -1.5625 13.1875 C-0.716875 14.115625 0.12875 15.04375 1 16 C-2 16 -2 16 -4.75 13.8125 C-7 11 -7 11 -7.0625 8.5 C-5.52034998 4.87141171 -3.59134335 1.79567167 0 0 Z " fill="#0D0D0D" transform="translate(192,347)"/>
<path d="M0 0 C0 0.66 0 1.32 0 2 C-3.1184325 3.0394775 -5.27475586 3.11494838 -8.54296875 3.09765625 C-9.61611328 3.09443359 -10.68925781 3.09121094 -11.79492188 3.08789062 C-12.91447266 3.07951172 -14.03402344 3.07113281 -15.1875 3.0625 C-16.31865234 3.05798828 -17.44980469 3.05347656 -18.61523438 3.04882812 C-21.41020927 3.03703498 -24.2050782 3.0205765 -27 3 C-27 2.67 -27 2.34 -27 2 C-25.91460938 1.93941406 -24.82921875 1.87882813 -23.7109375 1.81640625 C-22.26561514 1.73193936 -20.82030318 1.64729449 -19.375 1.5625 C-18.66214844 1.52318359 -17.94929687 1.48386719 -17.21484375 1.44335938 C-11.43651729 1.09878027 -5.78588049 -0.17017296 0 0 Z " fill="#0B0A0A" transform="translate(699,571)"/>
<path d="M0 0 C0.33 0.99 0.66 1.98 1 3 C-6.76637747 11.16924431 -6.76637747 11.16924431 -11 13 C-13.14453125 12.5625 -13.14453125 12.5625 -15 12 C-14.12988281 11.45472656 -14.12988281 11.45472656 -13.2421875 10.8984375 C-8.22314201 7.66835872 -4.0612943 4.37370156 0 0 Z " fill="#101010" transform="translate(828,556)"/>
<path d="M0 0 C0.61875 0.66 1.2375 1.32 1.875 2 C5.90831691 6.05669845 10.50211453 9.48029545 15 13 C14.01 13.33 13.02 13.66 12 14 C9.84375 12.70703125 9.84375 12.70703125 7.5 10.8125 C6.7265625 10.20019531 5.953125 9.58789062 5.15625 8.95703125 C3.08736084 7.07928946 1.4800208 5.36708455 0 3 C0 2.01 0 1.02 0 0 Z " fill="#131313" transform="translate(641,554)"/>
<path d="M0 0 C0.33 0 0.66 0 1 0 C1.05401695 2.91691525 1.09368066 5.83282724 1.125 8.75 C1.15013672 9.9875 1.15013672 9.9875 1.17578125 11.25 C1.18222656 12.04921875 1.18867188 12.8484375 1.1953125 13.671875 C1.20578613 14.4050293 1.21625977 15.13818359 1.22705078 15.89355469 C0.96777544 18.29896076 0.19225925 19.91251494 -1 22 C-1.22595954 18.89685213 -1.42770896 15.79259193 -1.625 12.6875 C-1.68945312 11.80642578 -1.75390625 10.92535156 -1.8203125 10.01757812 C-1.871875 9.17001953 -1.9234375 8.32246094 -1.9765625 7.44921875 C-2.02893066 6.66893311 -2.08129883 5.88864746 -2.13525391 5.0847168 C-2 3 -2 3 0 0 Z " fill="#090909" transform="translate(197,534)"/>
<path d="M0 0 C1.79341438 4.16673521 0.01173384 7.74663341 -1.4375 11.75 C-1.68048828 12.44738281 -1.92347656 13.14476562 -2.17382812 13.86328125 C-2.77310248 15.57885098 -3.38529885 17.28989715 -4 19 C-4.66 19 -5.32 19 -6 19 C-5.59524765 11.84937514 -3.17476348 6.37295696 0 0 Z " fill="#0E0E0E" transform="translate(195,407)"/>
<path d="M0 0 C0.33 0.99 0.66 1.98 1 3 C-0.31880399 5.17022147 -1.63577558 7.07219295 -3.1875 9.0625 C-3.58775391 9.60455078 -3.98800781 10.14660156 -4.40039062 10.70507812 C-6.63810867 13.6391363 -8.50287836 15.70566303 -12 17 C-8.31121019 11.02564878 -4.68056077 5.24790147 0 0 Z " fill="#0C0C0C" transform="translate(424,472)"/>
<path d="M0 0 C0.99 0.33 1.98 0.66 3 1 C3.4125 1.928125 3.825 2.85625 4.25 3.8125 C6.55971449 8.01947996 8.75033995 8.91526111 13 11 C12.67 11.66 12.34 12.32 12 13 C7.98491941 11.62340094 5.01542079 10.01542079 2 7 C0.6875 3.25 0.6875 3.25 0 0 Z " fill="#0F0F10" transform="translate(661,535)"/>
<path d="M0 0 C5.1711115 4.54431011 8.44663108 10.15281368 12 16 C11.01 16 10.02 16 9 16 C7.28639296 13.92532204 5.79725808 11.91582114 4.3125 9.6875 C3.89677734 9.09259766 3.48105469 8.49769531 3.05273438 7.88476562 C0 3.39839901 0 3.39839901 0 0 Z " fill="#0D0C0C" transform="translate(380,530)"/>
<path d="M0 0 C0.33 0 0.66 0 1 0 C0.41632611 6.30367803 -1.04071619 11.98660063 -3 18 C-3.66 18 -4.32 18 -5 18 C-3.41463415 3.41463415 -3.41463415 3.41463415 0 0 Z " fill="#0E0E0E" transform="translate(475,549)"/>
<path d="M0 0 C0.66 0 1.32 0 2 0 C1.72690064 3.91442413 1.25007787 5.7026101 -1.3125 8.75 C-3.53534124 10.61098336 -5.33866108 11.91575081 -8 13 C-8.66 12.34 -9.32 11.68 -10 11 C-9.071875 10.4225 -8.14375 9.845 -7.1875 9.25 C-3.28302311 6.49389866 -1.5017579 4.50527371 0 0 Z " fill="#0F0F0F" transform="translate(699,535)"/>
<path d="M0 0 C1.27617187 0.02320313 2.55234375 0.04640625 3.8671875 0.0703125 C5.78917969 0.09738281 5.78917969 0.09738281 7.75 0.125 C9.23113281 0.15980469 9.23113281 0.15980469 10.7421875 0.1953125 C9.7521875 1.6803125 9.7521875 1.6803125 8.7421875 3.1953125 C1.8121875 2.7003125 1.8121875 2.7003125 -5.2578125 2.1953125 C-3.2578125 0.1953125 -3.2578125 0.1953125 0 0 Z " fill="#0C0C0C" transform="translate(486.2578125,545.8046875)"/>
<path d="M0 0 C0.33 0 0.66 0 1 0 C1 5.94 1 11.88 1 18 C0.34 18 -0.32 18 -1 18 C-1.22181406 15.56304285 -1.42791119 13.126474 -1.625 10.6875 C-1.68945312 9.99720703 -1.75390625 9.30691406 -1.8203125 8.59570312 C-2.11802847 4.7440028 -2.20763723 3.31145584 0 0 Z " fill="#040505" transform="translate(346,498)"/>
<path d="M0 0 C1.32 0.99 2.64 1.98 4 3 C3.45660208 7.56454251 2.20536179 10.9728176 0 15 C-0.66 15 -1.32 15 -2 15 C-1.53662875 12.29700104 -1.0047856 10.01063467 0.125 7.5 C1.15203815 4.56560528 0.84240543 2.94841899 0 0 Z " fill="#0E0E0E" transform="translate(198,391)"/>
<path d="M0 0 C3.91703377 1.30567792 4.31757187 2.80094602 6.25 6.375 C7.06210938 7.84066406 7.06210938 7.84066406 7.890625 9.3359375 C9 12 9 12 8 15 C5.68839505 12.68839505 4.43821237 10.36966523 2.875 7.5 C2.33617187 6.5203125 1.79734375 5.540625 1.2421875 4.53125 C0 2 0 2 0 0 Z " fill="#0E0E0E" transform="translate(175,564)"/>
<path d="M0 0 C2.65312285 0.98544563 5.02209441 2.01359656 7.4375 3.5 C10.21409071 5.12532139 12.92797226 6.07124743 16 7 C16 7.33 16 7.66 16 8 C10.24406487 8.90883186 6.70506569 6.39512861 1.9765625 3.5078125 C1.32429687 3.01023437 0.67203125 2.51265625 0 2 C0 1.34 0 0.68 0 0 Z " fill="#111111" transform="translate(870,564)"/>
<path d="M0 0 C0.66 0 1.32 0 2 0 C2.33773437 0.91523438 2.67546875 1.83046875 3.0234375 2.7734375 C3.46945313 3.96195312 3.91546875 5.15046875 4.375 6.375 C4.81585938 7.55835938 5.25671875 8.74171875 5.7109375 9.9609375 C6.7950342 13.04493446 6.7950342 13.04493446 9 15 C6.26214592 14.64899307 5.25118702 14.31993294 3.515625 12.109375 C2.88914063 10.94148438 2.88914063 10.94148438 2.25 9.75 C1.82203125 8.98171875 1.3940625 8.2134375 0.953125 7.421875 C-0.09006898 4.77113619 -0.18016322 2.8225571 0 0 Z " fill="#0D0D0D" transform="translate(186,473)"/>
<path d="M0 0 C1.31225809 3.93677426 0.3393954 5.7794262 -0.9375 9.6875 C-1.50791016 11.45673828 -1.50791016 11.45673828 -2.08984375 13.26171875 C-2.39019531 14.16535156 -2.69054687 15.06898438 -3 16 C-3.33 16 -3.66 16 -4 16 C-4.36266924 10.19729221 -3.30512167 6.34788227 -1 1 C-0.67 0.67 -0.34 0.34 0 0 Z " fill="#0B0B0B" transform="translate(226,589)"/>
<path d="M0 0 C3 1 3 1 3.94921875 2.890625 C6.41063747 10.75674619 6.41063747 10.75674619 6 15 C4 14 4 14 2.9296875 11.34765625 C2.40761719 9.72150391 2.40761719 9.72150391 1.875 8.0625 C1.52179688 6.98097656 1.16859375 5.89945313 0.8046875 4.78515625 C0 2 0 2 0 0 Z " fill="#0A0A0A" transform="translate(184,582)"/>
<path d="M0 0 C0.99 0 1.98 0 3 0 C2.57533503 1.77395508 2.1347591 3.54410631 1.6875 5.3125 C1.44386719 6.29863281 1.20023437 7.28476562 0.94921875 8.30078125 C-0.00049589 11.00141012 -0.81847677 12.20956216 -3 14 C-2.48594831 9.03083364 -1.76615118 4.70973649 0 0 Z " fill="#0E0E0E" transform="translate(455,526)"/>
<path d="M0 0 C0.99 0.495 0.99 0.495 2 1 C2.46806645 3.33744294 2.82669794 5.69739079 3.125 8.0625 C3.29257812 9.35285156 3.46015625 10.64320313 3.6328125 11.97265625 C3.75398437 12.97167969 3.87515625 13.97070312 4 15 C3.34 15 2.68 15 2 15 C-0.10428384 9.87080814 -0.21755666 5.4389165 0 0 Z " fill="#0C0C0C" transform="translate(633,529)"/>
<path d="M0 0 C2.8551592 4.2827388 3.11672494 7.14458058 3.0625 12.1875 C3.05347656 13.27417969 3.04445313 14.36085938 3.03515625 15.48046875 C3.02355469 16.31191406 3.01195312 17.14335937 3 18 C-0.08994688 12.12156447 -0.11222297 6.50893221 0 0 Z " fill="#0B0A0A" transform="translate(282,372)"/>
<path d="M0 0 C4.00972202 3.67557852 6.45335415 7.18966896 9 12 C8.01 12 7.02 12 6 12 C4.39453125 10.13671875 4.39453125 10.13671875 2.8125 7.6875 C2.28269531 6.88699219 1.75289063 6.08648438 1.20703125 5.26171875 C0 3 0 3 0 0 Z " fill="#0F0F0F" transform="translate(115,564)"/>
<path d="M0 0 C3 0 3 0 5.4375 2.375 C6.283125 3.24125 7.12875 4.1075 8 5 C10.16620544 6.29519995 10.16620544 6.29519995 12 7 C12 7.66 12 8.32 12 9 C6.93982644 8.5535141 4.56694486 6.404811 1 3 C0.67 2.01 0.34 1.02 0 0 Z " fill="#0E0F0F" transform="translate(772,539)"/>
<path d="M0 0 C3 1 3 1 3.94921875 2.890625 C6.41063747 10.75674619 6.41063747 10.75674619 6 15 C3.61874536 12.61874536 2.99813759 10.66142433 1.875 7.5 C1.52179687 6.5203125 1.16859375 5.540625 0.8046875 4.53125 C0 2 0 2 0 0 Z " fill="#0C0C0C" transform="translate(536,525)"/>
<path d="M0 0 C3.7602985 0.58107632 6.53035032 1.65199496 9.8125 3.5625 C10.60269531 4.01753906 11.39289063 4.47257812 12.20703125 4.94140625 C12.79871094 5.29074219 13.39039063 5.64007813 14 6 C11.26980214 7.06528748 10.20701188 7.07998186 7.421875 6.00390625 C6.54015625 5.52824219 5.6584375 5.05257813 4.75 4.5625 C3.85796875 4.08941406 2.9659375 3.61632812 2.046875 3.12890625 C1.37140625 2.75636719 0.6959375 2.38382812 0 2 C0 1.34 0 0.68 0 0 Z " fill="#0F0E0E" transform="translate(168,495)"/>
<path d="M0 0 C-1 3 -1 3 -2.890625 3.94921875 C-10.75674619 6.41063747 -10.75674619 6.41063747 -15 6 C-12.61874536 3.61874536 -10.66142433 2.99813759 -7.5 1.875 C-6.5203125 1.52179688 -5.540625 1.16859375 -4.53125 0.8046875 C-2 0 -2 0 0 0 Z " fill="#0A0A0B" transform="translate(235,499)"/>
<path d="M0 0 C0.99 0.33 1.98 0.66 3 1 C4.125 3.4375 4.125 3.4375 5 6 C5.33 6.66 5.66 7.32 6 8 C5.72057545 9.67654729 5.39171753 11.34608154 5 13 C2.53698577 10.53698577 2.23233479 8.72639964 1.375 5.375 C1.11460937 4.37210937 0.85421875 3.36921875 0.5859375 2.3359375 C0.39257812 1.56507813 0.19921875 0.79421875 0 0 Z " fill="#101010" transform="translate(522,482)"/>
<path d="M0 0 C1.32 0 2.64 0 4 0 C4.99 3.96 5.98 7.92 7 12 C6.01 12.495 6.01 12.495 5 13 C3.35 8.71 1.7 4.42 0 0 Z " fill="#101010" transform="translate(512,455)"/>
<path d="M0 0 C0.33 0.99 0.66 1.98 1 3 C-0.43359375 5.48046875 -0.43359375 5.48046875 -2.4375 8.1875 C-3.09621094 9.08855469 -3.75492188 9.98960937 -4.43359375 10.91796875 C-5.20896484 11.94857422 -5.20896484 11.94857422 -6 13 C-6.66 12.34 -7.32 11.68 -8 11 C-5.36 7.37 -2.72 3.74 0 0 Z " fill="#0E0E0E" transform="translate(217,369)"/>
<path d="M0 0 C4.49797113 1.68673918 8.72886302 3.81673892 13 6 C13 6.33 13 6.66 13 7 C7.59305933 6.56744475 4.24633878 5.41778487 0 2 C0 1.34 0 0.68 0 0 Z " fill="#0F0E0E" transform="translate(760,564)"/>
<path d="M0 0 C3.28465896 2.79196011 5.01321958 6.23196817 7 10 C7 10.66 7 11.32 7 12 C3.86501824 10.91897181 3.0131441 10.02159388 1.25 7.125 C0 4 0 4 0 0 Z " fill="#0F0E0E" transform="translate(746,545)"/>
<path d="M0 0 C0.33 0.66 0.66 1.32 1 2 C1.66 2 2.32 2 3 2 C3.33 6.29 3.66 10.58 4 15 C1.73625389 12.73625389 1.51648574 11.68987631 0.875 8.625 C0.70742187 7.85414063 0.53984375 7.08328125 0.3671875 6.2890625 C0 4 0 4 0 0 Z " fill="#0A0B0B" transform="translate(190,600)"/>
<path d="M0 0 C0.66 0 1.32 0 2 0 C1.42365861 4.75481646 -0.55068521 7.97048212 -3 12 C-3.66 12 -4.32 12 -5 12 C-3.68938409 7.76570244 -2.05643741 3.92592596 0 0 Z " fill="#0D0D0D" transform="translate(291,568)"/>
<path d="M0 0 C2.912575 0.08566397 4.56798024 0.57910955 6.66796875 2.625 C8.16091772 4.38391375 9.60436262 6.16313019 11 8 C7.24026115 8 6.54322371 7.03457593 3.8125 4.5625 C3.09707031 3.92441406 2.38164062 3.28632812 1.64453125 2.62890625 C1.10183594 2.09136719 0.55914062 1.55382812 0 1 C0 0.67 0 0.34 0 0 Z " fill="#0E0E0E" transform="translate(142,530)"/>
<path d="M0 0 C1 2 1 2 0.22265625 4.3828125 C-0.16019531 5.28773438 -0.54304688 6.19265625 -0.9375 7.125 C-1.31777344 8.03507813 -1.69804687 8.94515625 -2.08984375 9.8828125 C-2.39019531 10.58148437 -2.69054687 11.28015625 -3 12 C-3.33 12 -3.66 12 -4 12 C-3.125 4.375 -3.125 4.375 -2 1 C-1.34 0.67 -0.68 0.34 0 0 Z " fill="#0D0C0D" transform="translate(448,553)"/>
<path d="M0 0 C0.33 0 0.66 0 1 0 C1.0272415 1.41655793 1.04650467 2.83327045 1.0625 4.25 C1.07410156 5.03890625 1.08570313 5.8278125 1.09765625 6.640625 C1.00385306 8.90691002 0.63241063 10.8288895 0 13 C-0.66 13 -1.32 13 -2 13 C-1.85966889 11.02043559 -1.7125877 9.04134859 -1.5625 7.0625 C-1.48128906 5.96035156 -1.40007813 4.85820313 -1.31640625 3.72265625 C-1 1 -1 1 0 0 Z " fill="#0B0B0B" transform="translate(728,530)"/>
<path d="M0 0 C3.79235994 1.48985569 5.80565887 3.58658047 8 7 C7.60546875 9.1640625 7.60546875 9.1640625 7 11 C5.82750647 9.54634731 4.66216184 8.08692581 3.5 6.625 C2.52546875 5.40683594 2.52546875 5.40683594 1.53125 4.1640625 C0 2 0 2 0 0 Z " fill="#0C0C0D" transform="translate(165,551)"/>
<path d="M0 0 C0.33 0.99 0.66 1.98 1 3 C-1.04074305 6.57130033 -2.55753136 8.7050209 -6 11 C-5.39305845 7.84669446 -4.3583335 5.81111133 -2.4375 3.25 C-1.98246094 2.63640625 -1.52742187 2.0228125 -1.05859375 1.390625 C-0.70925781 0.93171875 -0.35992188 0.4728125 0 0 Z " fill="#0E0E0E" transform="translate(919,535)"/>
<path d="M0 0 C3.69790046 1.23263349 3.9354846 2.20052451 5.6875 5.5625 C6.12449219 6.38878906 6.56148437 7.21507812 7.01171875 8.06640625 C7.33785156 8.70449219 7.66398438 9.34257813 8 10 C7.01 10 6.02 10 5 10 C3.61328125 8.3203125 3.61328125 8.3203125 2.3125 6.125 C1.87550781 5.40570312 1.43851563 4.68640625 0.98828125 3.9453125 C0 2 0 2 0 0 Z " fill="#0D0D0D" transform="translate(880,534)"/>
<path d="M0 0 C2 1 2 1 2.8515625 3.50390625 C3.10679687 4.51324219 3.36203125 5.52257812 3.625 6.5625 C3.88539063 7.57441406 4.14578125 8.58632813 4.4140625 9.62890625 C4.60742188 10.41136719 4.80078125 11.19382812 5 12 C4.01 11.67 3.02 11.34 2 11 C0.37676246 7.24092359 -0.23994929 4.07913787 0 0 Z " fill="#0B0A0B" transform="translate(501,492)"/>
<path d="M0 0 C3.66670726 2.4444715 3.93344791 3.81583412 5 8 C5.125 10.875 5.125 10.875 5 13 C1.42988974 9.267612 0.89086558 4.9050011 0 0 Z " fill="#0B0B0B" transform="translate(542,542)"/>
<path d="M0 0 C0 3 0 3 -2.375 5.5625 C-3.24125 6.366875 -4.1075 7.17125 -5 8 C-5.66 8.66 -6.32 9.32 -7 10 C-7 5.29735282 -6.14293274 4.3225289 -3 1 C-2.01 0.67 -1.02 0.34 0 0 Z " fill="#0E0F0F" transform="translate(202,335)"/>
<path d="M0 0 C0.75 1.5625 0.75 1.5625 1 4 C-0.13084437 6.50286409 -1.52139516 8.67007722 -3 11 C-3.66 11 -4.32 11 -5 11 C-3.55049545 7.2089881 -1.84827434 3.6125362 0 0 Z " fill="#0B0A0B" transform="translate(725,544)"/>
<path d="M0 0 C0.33 0 0.66 0 1 0 C0.125 7.625 0.125 7.625 -1 11 C-1.66 11 -2.32 11 -3 11 C-2.53199289 6.94393835 -2.12046792 3.53411321 0 0 Z " fill="#0C0C0C" transform="translate(302,543)"/>
<path d="M0 0 C2.62002725 2.37050084 4.35819909 4.87276017 6 8 C6 8.99 6 9.98 6 11 C5.34 11 4.68 11 4 11 C3.32591692 9.73308493 2.66099503 8.46129251 2 7.1875 C1.62875 6.47980469 1.2575 5.77210938 0.875 5.04296875 C0 3 0 3 0 0 Z " fill="#0F0F0F" transform="translate(91,521)"/>
<path d="M0 0 C2 2 2 2 2.046875 3.91015625 C1.94890625 4.62042969 1.8509375 5.33070313 1.75 6.0625 C1.61851562 7.13177734 1.61851562 7.13177734 1.484375 8.22265625 C1.32453125 8.80917969 1.1646875 9.39570313 1 10 C0.01 10.495 0.01 10.495 -1 11 C-1.02688151 9.35425434 -1.04634123 7.70838587 -1.0625 6.0625 C-1.07410156 5.14597656 -1.08570313 4.22945313 -1.09765625 3.28515625 C-1 1 -1 1 0 0 Z " fill="#0E0E0E" transform="translate(660,454)"/>
<path d="M0 0 C0.33 0 0.66 0 1 0 C0.88557539 1.60495567 0.75805306 3.20898119 0.625 4.8125 C0.55539063 5.70582031 0.48578125 6.59914063 0.4140625 7.51953125 C0 10 0 10 -2 13 C-2 9.7 -2 6.4 -2 3 C-1.34 3 -0.68 3 0 3 C0 2.01 0 1.02 0 0 Z " fill="#0B0B0B" transform="translate(220,612)"/>
<path d="M0 0 C0.66 0 1.32 0 2 0 C0.44499019 3.81684226 -2.03595495 6.19195732 -5 9 C-5.99 8.67 -6.98 8.34 -8 8 C-7.236875 7.4225 -6.47375 6.845 -5.6875 6.25 C-2.99108421 4.16642802 -2.99108421 4.16642802 -1.3125 1.75 C-0.879375 1.1725 -0.44625 0.595 0 0 Z " fill="#0F0F0F" transform="translate(935,558)"/>
<path d="M0 0 C0.66 0 1.32 0 2 0 C4.09350689 3.4019487 4.17942163 6.05272412 4 10 C3.34 10 2.68 10 2 10 C1.34 6.7 0.68 3.4 0 0 Z " fill="#0B0B0B" transform="translate(518,470)"/>
<path d="M0 0 C0.33 0 0.66 0 1 0 C0.88557539 1.60495567 0.75805306 3.20898119 0.625 4.8125 C0.55539063 5.70582031 0.48578125 6.59914063 0.4140625 7.51953125 C0 10 0 10 -2 13 C-2.05447047 11.58376784 -2.09300508 10.16691809 -2.125 8.75 C-2.14820313 7.96109375 -2.17140625 7.1721875 -2.1953125 6.359375 C-1.9828378 3.79268059 -1.28654105 2.2083933 0 0 Z " fill="#070707" transform="translate(200,427)"/>
<path d="M0 0 C0.66 1.32 1.32 2.64 2 4 C1.34 4 0.68 4 0 4 C-0.66 5.65 -1.32 7.3 -2 9 C-2.99 8.67 -3.98 8.34 -5 8 C-3.35 5.36 -1.7 2.72 0 0 Z " fill="#100F10" transform="translate(942,548)"/>
<path d="M0 0 C0.99 0.33 1.98 0.66 3 1 C-0.465 3.97 -0.465 3.97 -4 7 C-4.66 6.67 -5.32 6.34 -6 6 C-4 4 -2 2 0 0 Z " fill="#0B0A0B" transform="translate(277,522)"/>
<path d="M0 0 C2 1 2 1 3.1875 3.3125 C4.03624754 6.11989571 3.99928333 7.301935 3 10 C0.59185923 6.48812804 -0.36629408 4.27343092 0 0 Z " fill="#0C0C0C" transform="translate(505,505)"/>
<path d="M0 0 C0.66 0 1.32 0 2 0 C2.66 3.3 3.32 6.6 4 10 C1 8 1 8 0.48828125 6.0546875 C0.32552083 4.03645833 0.16276042 2.01822917 0 0 Z " fill="#0C0C0C" transform="translate(131,447)"/>
<path d="M0 0 C0.99 0.33 1.98 0.66 3 1 C-1.296875 5.00390625 -1.296875 5.00390625 -3 6 C-5.203125 5.65234375 -5.203125 5.65234375 -7 5 C-5.90554162 4.13342884 -4.79902219 3.28207276 -3.6875 2.4375 C-3.07261719 1.96183594 -2.45773437 1.48617187 -1.82421875 0.99609375 C-1.22222656 0.66738281 -0.62023437 0.33867188 0 0 Z " fill="#0F0E0E" transform="translate(711,563)"/>
<path d="M0 0 C3 2 3 2 3.51171875 4.1640625 C3.56972656 4.97617187 3.62773438 5.78828125 3.6875 6.625 C3.75324219 7.44226563 3.81898438 8.25953125 3.88671875 9.1015625 C3.92410156 9.72804688 3.96148438 10.35453125 4 11 C1.6870518 8.6870518 1.50419025 7.52095125 0.875 4.375 C0.70742188 3.55773437 0.53984375 2.74046875 0.3671875 1.8984375 C0.24601563 1.27195312 0.12484375 0.64546875 0 0 Z " fill="#0C0C0C" transform="translate(547,557)"/>
<path d="M0 0 C3.24299151 2.38957269 5.50902342 4.2047869 7 8 C6.01 8 5.02 8 4 8 C2.4375 5.625 2.4375 5.625 1 3 C0.34 2.34 -0.32 1.68 -1 1 C-0.67 0.67 -0.34 0.34 0 0 Z " fill="#0D0D0E" transform="translate(373,521)"/>
<path d="M0 0 C0.33 0.66 0.66 1.32 1 2 C-0.2739589 4.03833424 -1.61061923 6.03852126 -3 8 C-3.66 8 -4.32 8 -5 8 C-3.8141763 4.62496331 -2.72426311 2.35277269 0 0 Z " fill="#0A0A09" transform="translate(240,561)"/>
<path d="M0 0 C0 0.99 0 1.98 0 3 C-2.25 4.8125 -2.25 4.8125 -5 6 C-6.32 5.34 -7.64 4.68 -9 4 C-6.03 2.68 -3.06 1.36 0 0 Z " fill="#0F0F10" transform="translate(806,542)"/>
<path d="M0 0 C0.33 0.99 0.66 1.98 1 3 C-0.40445835 5.2636564 -2.1967913 7.0208685 -4 9 C-4.33 8.01 -4.66 7.02 -5 6 C-3.59554165 3.7363436 -1.8032087 1.9791315 0 0 Z " fill="#0E0E0E" transform="translate(410,491)"/>
<path d="M0 0 C1.19156292 4.76625167 0.3415946 5.87879351 -2 10 C-2.66 9.34 -3.32 8.68 -4 8 C-2.68 5.36 -1.36 2.72 0 0 Z " fill="#0E0E0E" transform="translate(281,454)"/>
<path d="M0 0 C-0.25 1.875 -0.25 1.875 -1 4 C-3.0625 5.25 -3.0625 5.25 -5 6 C-4.34 4.68 -3.68 3.36 -3 2 C-3.99 1.67 -4.98 1.34 -6 1 C-4 0 -4 0 0 0 Z " fill="#0A0A0A" transform="translate(438,455)"/>
<path d="M0 0 C0.33 0.99 0.66 1.98 1 3 C-0.40445835 5.2636564 -2.1967913 7.0208685 -4 9 C-4.66 8.34 -5.32 7.68 -6 7 C-4.02 4.69 -2.04 2.38 0 0 Z " fill="#0D0E0E" transform="translate(224,360)"/>
<path d="M0 0 C0.99 0.33 1.98 0.66 3 1 C2.34 1 1.68 1 1 1 C0.67 1.99 0.34 2.98 0 4 C-2.5625 5.1875 -2.5625 5.1875 -5 6 C-3.63016497 2.83884224 -3.0109362 2.0072908 0 0 Z " fill="#0B0B0B" transform="translate(244,358)"/>
<path d="M0 0 C2.64 0 5.28 0 8 0 C7.67 0.66 7.34 1.32 7 2 C4.35139573 2.59355614 1.70802678 2.74209269 -1 3 C-0.67 2.01 -0.34 1.02 0 0 Z " fill="#09090A" transform="translate(447,569)"/>
<path d="M0 0 C6.875 3.75 6.875 3.75 8 6 C5.21788056 5.62403791 3.4120716 5.32681541 1.1875 3.5625 C0 2 0 2 0 0 Z " fill="#0B0A0A" transform="translate(648,562)"/>
<path d="M0 0 C0.33 0 0.66 0 1 0 C1.33 4.29 1.66 8.58 2 13 C1.67 12.01 1.34 11.02 1 10 C0.34 10 -0.32 10 -1 10 C-0.67 6.7 -0.34 3.4 0 0 Z " fill="#222122" transform="translate(281,355)"/>
<path d="M0 0 C2.31 0.66 4.62 1.32 7 2 C6.34 2.66 5.68 3.32 5 4 C4.01 4 3.02 4 2 4 C1.34 4.66 0.68 5.32 0 6 C0 4.02 0 2.04 0 0 Z " fill="#242424" transform="translate(134,339)"/>
<path d="M0 0 C0.33 0.99 0.66 1.98 1 3 C-0.8125 5.6875 -0.8125 5.6875 -3 8 C-3.66 8 -4.32 8 -5 8 C-3.8141763 4.62496331 -2.72426311 2.35277269 0 0 Z " fill="#0E0E0E" transform="translate(268,604)"/>
<path d="M0 0 C0.66 0 1.32 0 2 0 C1.25 6.75 1.25 6.75 -1 9 C-0.67 6.03 -0.34 3.06 0 0 Z " fill="#0E0E0F" transform="translate(476,461)"/>
<path d="M0 0 C0.33 0 0.66 0 1 0 C1 1.65 1 3.3 1 5 C0.67 5 0.34 5 0 5 C0 3.35 0 1.7 0 0 Z " fill="#292828" transform="translate(193,464)"/>
<path d="M0 0 C0.66 0.66 1.32 1.32 2 2 C1.01 2 0.02 2 -1 2 C-0.67 1.34 -0.34 0.68 0 0 Z " fill="#2A2A2B" transform="translate(201,379)"/>
<path d="M0 0 C1 4 1 4 1 4 Z " fill="#2D2D2E" transform="translate(740,532)"/>
<path d="" fill="#2C2B2C" transform="translate(0,0)"/>
<path d="" fill="#2A292A" transform="translate(0,0)"/>
<path d="M0 0 C3 1 3 1 3 1 Z " fill="#333233" transform="translate(304,504)"/>
<path d="" fill="#312F30" transform="translate(0,0)"/>
<path d="" fill="#333232" transform="translate(0,0)"/>
<path d="" fill="#302F2F" transform="translate(0,0)"/>
<path d="" fill="#343535" transform="translate(0,0)"/>
<path d="" fill="#343133" transform="translate(0,0)"/>
<path d="" fill="#363635" transform="translate(0,0)"/>
<path d="" fill="#323131" transform="translate(0,0)"/>
<path d="" fill="#373737" transform="translate(0,0)"/>
<path d="M0 0 C2 1 2 1 2 1 Z " fill="#2D2C2C" transform="translate(499,550)"/>
<path d="" fill="#2E2D2E" transform="translate(0,0)"/>
<path d="" fill="#2E2D2C" transform="translate(0,0)"/>
<path d="M0 0 C2 1 2 1 2 1 Z " fill="#2D2E2E" transform="translate(849,528)"/>
<path d="" fill="#2D2E2F" transform="translate(0,0)"/>
<path d="" fill="#2D2E2F" transform="translate(0,0)"/>
<path d="M0 0 C2 1 2 1 2 1 Z " fill="#2D2E2E" transform="translate(187,506)"/>
<path d="" fill="#2A2A2B" transform="translate(0,0)"/>
<path d="" fill="#2E2E2F" transform="translate(0,0)"/>
<path d="" fill="#2B2B2A" transform="translate(0,0)"/>
<path d="" fill="#2E2F2F" transform="translate(0,0)"/>
<path d="" fill="#313231" transform="translate(0,0)"/>
<path d="" fill="#2A2929" transform="translate(0,0)"/>
<path d="" fill="#2A2928" transform="translate(0,0)"/>
<path d="" fill="#2C2E2E" transform="translate(0,0)"/>
<path d="" fill="#686969" transform="translate(0,0)"/>
<path d="" fill="#404343" transform="translate(0,0)"/>
<path d="" fill="#363435" transform="translate(0,0)"/>
<path d="" fill="#323032" transform="translate(0,0)"/>
<path d="" fill="#33312F" transform="translate(0,0)"/>
<path d="" fill="#333132" transform="translate(0,0)"/>
<path d="" fill="#323234" transform="translate(0,0)"/>
<path d="" fill="#343336" transform="translate(0,0)"/>
<path d="" fill="#353536" transform="translate(0,0)"/>
<path d="" fill="#353536" transform="translate(0,0)"/>
<path d="" fill="#333434" transform="translate(0,0)"/>
<path d="" fill="#343332" transform="translate(0,0)"/>
<path d="" fill="#363434" transform="translate(0,0)"/>
<path d="" fill="#2A292A" transform="translate(0,0)"/>
<path d="" fill="#28282A" transform="translate(0,0)"/>
<path d="" fill="#2A2A29" transform="translate(0,0)"/>
<path d="" fill="#29292A" transform="translate(0,0)"/>
<path d="" fill="#353637" transform="translate(0,0)"/>
<path d="" fill="#292828" transform="translate(0,0)"/>
<path d="" fill="#272628" transform="translate(0,0)"/>
<path d="" fill="#383836" transform="translate(0,0)"/>
<path d="" fill="#393636" transform="translate(0,0)"/>
<path d="" fill="#383839" transform="translate(0,0)"/>
<path d="" fill="#383837" transform="translate(0,0)"/>
<path d="" fill="#363632" transform="translate(0,0)"/>
<path d="" fill="#343434" transform="translate(0,0)"/>
<path d="" fill="#343433" transform="translate(0,0)"/>
<path d="" fill="#373835" transform="translate(0,0)"/>
<path d="" fill="#373636" transform="translate(0,0)"/>
<path d="" fill="#383536" transform="translate(0,0)"/>
<path d="" fill="#3A3737" transform="translate(0,0)"/>
<path d="" fill="#343435" transform="translate(0,0)"/>
<path d="" fill="#383635" transform="translate(0,0)"/>
<path d="" fill="#353235" transform="translate(0,0)"/>
<path d="" fill="#3B3A3B" transform="translate(0,0)"/>
<path d="" fill="#363636" transform="translate(0,0)"/>
<path d="" fill="#313231" transform="translate(0,0)"/>
<path d="" fill="#302F33" transform="translate(0,0)"/>
<path d="" fill="#2D2D2E" transform="translate(0,0)"/>
<path d="" fill="#2A2728" transform="translate(0,0)"/>
<path d="" fill="#353533" transform="translate(0,0)"/>
<path d="" fill="#312F31" transform="translate(0,0)"/>
<path d="" fill="#2E2C2C" transform="translate(0,0)"/>
<path d="" fill="#282925" transform="translate(0,0)"/>
<path d="" fill="#343334" transform="translate(0,0)"/>
<path d="" fill="#2B2C29" transform="translate(0,0)"/>
<path d="" fill="#292C2B" transform="translate(0,0)"/>
<path d="" fill="#313331" transform="translate(0,0)"/>
<path d="" fill="#313131" transform="translate(0,0)"/>
<path d="" fill="#333333" transform="translate(0,0)"/>
<path d="" fill="#323030" transform="translate(0,0)"/>
<path d="" fill="#2D2C2C" transform="translate(0,0)"/>
<path d="" fill="#282828" transform="translate(0,0)"/>
<path d="" fill="#3B3A39" transform="translate(0,0)"/>
<path d="" fill="#312D30" transform="translate(0,0)"/>
<path d="" fill="#2C2B2C" transform="translate(0,0)"/>
<path d="" fill="#333131" transform="translate(0,0)"/>
<path d="" fill="#2F2D2E" transform="translate(0,0)"/>
<path d="" fill="#323232" transform="translate(0,0)"/>
<path d="" fill="#2D2E2E" transform="translate(0,0)"/>
<path d="" fill="#2C2C2C" transform="translate(0,0)"/>
<path d="" fill="#2C2D2C" transform="translate(0,0)"/>
<path d="" fill="#2F2E2D" transform="translate(0,0)"/>
<path d="" fill="#2D2C29" transform="translate(0,0)"/>
<path d="" fill="#2E2E2F" transform="translate(0,0)"/>
<path d="" fill="#313032" transform="translate(0,0)"/>
<path d="" fill="#2D2F2D" transform="translate(0,0)"/>
<path d="" fill="#2C2D2D" transform="translate(0,0)"/>
<path d="" fill="#2D2C2C" transform="translate(0,0)"/>
<path d="" fill="#2C2A2C" transform="translate(0,0)"/>
<path d="" fill="#2E2F2F" transform="translate(0,0)"/>
<path d="" fill="#2D2E2D" transform="translate(0,0)"/>
<path d="" fill="#2F302E" transform="translate(0,0)"/>
<path d="" fill="#2D2F30" transform="translate(0,0)"/>
<path d="" fill="#303033" transform="translate(0,0)"/>
<path d="" fill="#2F2F31" transform="translate(0,0)"/>
<path d="" fill="#2D2F2F" transform="translate(0,0)"/>
<path d="" fill="#312F30" transform="translate(0,0)"/>
<path d="" fill="#302D2E" transform="translate(0,0)"/>
<path d="" fill="#302E2F" transform="translate(0,0)"/>
<path d="" fill="#2F2F30" transform="translate(0,0)"/>
<path d="" fill="#2F2D2F" transform="translate(0,0)"/>
<path d="" fill="#2E2D2D" transform="translate(0,0)"/>
<path d="" fill="#2E2F2E" transform="translate(0,0)"/>
<path d="" fill="#313131" transform="translate(0,0)"/>
<path d="" fill="#2E2C2E" transform="translate(0,0)"/>
<path d="" fill="#2C2D2D" transform="translate(0,0)"/>
<path d="" fill="#2B2C2C" transform="translate(0,0)"/>
<path d="" fill="#2C2C2D" transform="translate(0,0)"/>
<path d="" fill="#2E2B2C" transform="translate(0,0)"/>
<path d="" fill="#2B272A" transform="translate(0,0)"/>
<path d="" fill="#2E2E31" transform="translate(0,0)"/>
<path d="" fill="#2C2C2E" transform="translate(0,0)"/>
<path d="" fill="#2E2E30" transform="translate(0,0)"/>
<path d="" fill="#2D2D2D" transform="translate(0,0)"/>
<path d="" fill="#2C2B2C" transform="translate(0,0)"/>
<path d="" fill="#2E2F31" transform="translate(0,0)"/>
<path d="" fill="#282929" transform="translate(0,0)"/>
<path d="" fill="#2E2C2E" transform="translate(0,0)"/>
<path d="" fill="#282829" transform="translate(0,0)"/>
<path d="" fill="#2D2E2C" transform="translate(0,0)"/>
<path d="" fill="#302E2F" transform="translate(0,0)"/>
<path d="" fill="#2B2A2A" transform="translate(0,0)"/>
<path d="" fill="#2C2C2C" transform="translate(0,0)"/>
<path d="" fill="#2E2F2E" transform="translate(0,0)"/>
<path d="" fill="#302E2F" transform="translate(0,0)"/>
<path d="" fill="#323332" transform="translate(0,0)"/>
<path d="" fill="#292A2B" transform="translate(0,0)"/>
<path d="" fill="#2C2B2C" transform="translate(0,0)"/>
<path d="" fill="#454645" transform="translate(0,0)"/>
<path d="" fill="#2B282B" transform="translate(0,0)"/>
<path d="" fill="#2B2C2C" transform="translate(0,0)"/>
<path d="" fill="#2B2B2A" transform="translate(0,0)"/>
<path d="" fill="#2E2E2D" transform="translate(0,0)"/>
<path d="" fill="#383638" transform="translate(0,0)"/>
<path d="" fill="#363536" transform="translate(0,0)"/>
<path d="" fill="#373638" transform="translate(0,0)"/>
<path d="" fill="#2E2F2F" transform="translate(0,0)"/>
<path d="" fill="#292A29" transform="translate(0,0)"/>
<path d="" fill="#282828" transform="translate(0,0)"/>
<path d="" fill="#2F2D2E" transform="translate(0,0)"/>
<path d="" fill="#2F2E2E" transform="translate(0,0)"/>
<path d="" fill="#2E2E2D" transform="translate(0,0)"/>
<path d="" fill="#272729" transform="translate(0,0)"/>
<path d="" fill="#2D2E2D" transform="translate(0,0)"/>
<path d="" fill="#2A2B2A" transform="translate(0,0)"/>
<path d="" fill="#312E2E" transform="translate(0,0)"/>
<path d="" fill="#302E2E" transform="translate(0,0)"/>
<path d="" fill="#2A2928" transform="translate(0,0)"/>
<path d="" fill="#2B2C2B" transform="translate(0,0)"/>
<path d="" fill="#2F2E30" transform="translate(0,0)"/>
<path d="" fill="#302E2E" transform="translate(0,0)"/>
<path d="" fill="#31302E" transform="translate(0,0)"/>
<path d="" fill="#2F2F2F" transform="translate(0,0)"/>
<path d="" fill="#383736" transform="translate(0,0)"/>
<path d="" fill="#312F2E" transform="translate(0,0)"/>
<path d="" fill="#2E2F31" transform="translate(0,0)"/>
<path d="" fill="#2E2C2E" transform="translate(0,0)"/>
<path d="" fill="#323333" transform="translate(0,0)"/>
<path d="" fill="#2E2D2D" transform="translate(0,0)"/>
<path d="" fill="#2F2E2E" transform="translate(0,0)"/>
<path d="" fill="#2F2F2D" transform="translate(0,0)"/>
<path d="" fill="#2F2D2D" transform="translate(0,0)"/>
<path d="" fill="#302F30" transform="translate(0,0)"/>
<path d="" fill="#39383A" transform="translate(0,0)"/>
<path d="" fill="#2E2E2E" transform="translate(0,0)"/>
<path d="" fill="#333335" transform="translate(0,0)"/>
<path d="" fill="#2C2C2B" transform="translate(0,0)"/>
<path d="" fill="#2B2C2C" transform="translate(0,0)"/>
<path d="" fill="#2B2B2C" transform="translate(0,0)"/>
<path d="" fill="#323031" transform="translate(0,0)"/>
<path d="" fill="#313030" transform="translate(0,0)"/>
<path d="" fill="#323134" transform="translate(0,0)"/>
<path d="" fill="#323031" transform="translate(0,0)"/>
<path d="" fill="#302E2E" transform="translate(0,0)"/>
<path d="" fill="#313233" transform="translate(0,0)"/>
<path d="" fill="#2E302E" transform="translate(0,0)"/>
<path d="" fill="#313132" transform="translate(0,0)"/>
<path d="" fill="#302F2F" transform="translate(0,0)"/>
<path d="" fill="#353636" transform="translate(0,0)"/>
<path d="" fill="#343537" transform="translate(0,0)"/>
<path d="" fill="#373537" transform="translate(0,0)"/>
<path d="" fill="#333434" transform="translate(0,0)"/>
<path d="" fill="#444344" transform="translate(0,0)"/>
<path d="" fill="#3A3A3A" transform="translate(0,0)"/>
<path d="" fill="#3A393B" transform="translate(0,0)"/>
<path d="" fill="#3B3C3C" transform="translate(0,0)"/>
<path d="" fill="#3B3B3B" transform="translate(0,0)"/>
<path d="" fill="#363836" transform="translate(0,0)"/>
<path d="" fill="#3E3E3D" transform="translate(0,0)"/>
<path d="" fill="#373837" transform="translate(0,0)"/>
<path d="" fill="#3C3C3C" transform="translate(0,0)"/>
<path d="" fill="#3C3C3C" transform="translate(0,0)"/>
<path d="" fill="#3C3B3C" transform="translate(0,0)"/>
<path d="" fill="#3A3838" transform="translate(0,0)"/>
<path d="" fill="#2A292A" transform="translate(0,0)"/>
<path d="" fill="#2A2A2A" transform="translate(0,0)"/>
<path d="" fill="#292828" transform="translate(0,0)"/>
<path d="" fill="#2B2B2A" transform="translate(0,0)"/>
<path d="" fill="#28282A" transform="translate(0,0)"/>
<path d="" fill="#29292A" transform="translate(0,0)"/>
<path d="" fill="#393838" transform="translate(0,0)"/>
<path d="" fill="#2F2E2C" transform="translate(0,0)"/>
<path d="" fill="#2E2D2D" transform="translate(0,0)"/>
<path d="" fill="#2C2D2D" transform="translate(0,0)"/>
<path d="" fill="#302E2E" transform="translate(0,0)"/>
<path d="" fill="#383839" transform="translate(0,0)"/>
<path d="" fill="#2B2C2D" transform="translate(0,0)"/>
<path d="" fill="#2F2E2F" transform="translate(0,0)"/>
<path d="" fill="#2F2F2C" transform="translate(0,0)"/>
<path d="" fill="#2E2F2F" transform="translate(0,0)"/>
<path d="" fill="#333336" transform="translate(0,0)"/>
<path d="" fill="#383837" transform="translate(0,0)"/>
<path d="" fill="#414041" transform="translate(0,0)"/>
<path d="" fill="#323333" transform="translate(0,0)"/>
<path d="" fill="#363737" transform="translate(0,0)"/>
<path d="" fill="#403F3F" transform="translate(0,0)"/>
<path d="" fill="#424343" transform="translate(0,0)"/>
<path d="" fill="#3A3939" transform="translate(0,0)"/>
</svg>
